<?xml version='1.0' encoding='UTF-8'?>
<svg xmlns="http://www.w3.org/2000/svg" version="1.1" width="597" height="503" viewBox="0 0 597 503">
  <g>
    <path style="fill:#000000" d="m 299,465.96937 c -140.99974,0 -247.097357,-0.37824 -247.895717,-0.88376 -0.767645,-0.48607 -1.119268,-1.60418 -0.781385,-2.48469 L 50.93723,461 90.718615,460.89147 C 112.59838,460.83177 133.2,460.47266 136.5,460.09345 l 6,-0.68949 -7.5,-0.78991 c -4.125,-0.43445 -24.825,-1.08784 -46,-1.45198 L 50.5,456.5 V 455 c 0,-1.21587 2.273072,-1.61638 12,-2.11441 6.6,-0.33793 116.4,-0.64207 244,-0.67588 127.6,-0.0338 234.025,0.24268 236.5,0.61441 3.03294,0.45554 4.5,1.1649 4.5,2.17588 v 1.5 l -40,0.61766 c -22,0.33971 -42.475,0.99166 -45.5,1.44878 l -5.5,0.83111 5,0.71362 c 2.75,0.39249 23.12662,0.75304 45.28138,0.80122 l 40.28139,0.0876 0.61433,1.60092 c 0.33788,0.88051 -0.0137,1.99862 -0.78138,2.48469 -0.79836,0.50552 -106.89598,0.88376 -247.89572,0.88376 z m 0.80902,-6.03966 C 320.53906,459.89106 338.4,459.47269 339.5,459 c 1.16255,-0.49956 -14.87847,-0.88886 -38.30902,-0.92971 -26.63567,-0.0464 -40.09937,0.26892 -39.69098,0.92971 0.3956,0.64009 14.18341,0.9747 38.30902,0.92971 z M 395,444 c -67.375,0.275 -165.7,0.275 -218.5,0 l -96,-0.5 v -2 -2 l 29,-0.61098 c 15.95,-0.33604 30.125,-0.70206 31.5,-0.81339 l 2.5,-0.2024 -2.27655,-0.91421 c -1.25211,-0.50282 -15.35665,-1.22206 -31.34344,-1.59832 -23.336524,-0.54923 -29.171384,-0.95643 -29.596982,-2.06553 -0.291558,-0.75978 -0.313356,-1.59818 -0.04844,-1.86309 0.264916,-0.26492 98.712462,-0.47856 218.772322,-0.47476 120.05986,0.004 218.5043,0.22055 218.76541,0.48167 0.26112,0.26111 0.23621,1.0964 -0.0554,1.85618 -0.4256,1.1091 -6.26046,1.5163 -29.59698,2.06553 -15.98679,0.37626 -30.09133,1.0955 -31.34344,1.59832 l -2.27655,0.91421 2,0.20404 c 1.1,0.11222 15.275,0.47824 31.5,0.81338 L 517.5,439.5 v 2 2 z m -96.5,-5.27153 c 16.5,0.0299 32.7,-0.24273 36,-0.60596 l 6,-0.66042 -10.90556,-0.73104 c -5.99806,-0.40208 -19.49806,-0.729 -30,-0.7265 -10.50194,0.002 -24.26944,0.33858 -30.59444,0.74684 l -11.5,0.74229 5.5,0.59016 c 3.025,0.32459 19,0.61467 35.5,0.64463 z M 56.5,444 c -0.760081,0 -1.616653,-0.37973 -1.903492,-0.84385 -0.286839,-0.46411 -0.06724,-2.48911 0.487987,-4.5 C 55.639727,436.64527 56.463977,435 56.916162,435 c 0.452184,0 1.089147,1.64529 1.415473,3.6562 0.326327,2.01092 0.358648,4.03592 0.07183,4.5 C 58.116639,443.62029 57.260081,444 56.5,444 Z m 8.375827,-0.2364 c -0.893295,0.18402 -1.893328,-0.36682 -2.222296,-1.2241 -0.328968,-0.85728 -0.157412,-3.88255 0.381235,-6.72282 0.538647,-2.84028 1.201181,-5.38596 1.472296,-5.65708 0.271116,-0.27111 0.716925,-0.26895 0.990686,0.005 0.273761,0.27377 0.611261,3.37029 0.75,6.88118 0.206175,5.21741 -0.04442,6.44454 -1.371921,6.71801 z m 8.561673,-0.0892 c -0.584375,0.20197 -1.371875,0.0578 -1.75,-0.32028 -0.378125,-0.37813 -0.655872,-5 -0.617215,-10.27084 C 71.108942,427.8125 71.50738,422.6 71.955703,421.5 l 0.815132,-2 0.791139,3 c 0.435126,1.65 0.824188,7.00663 0.864582,11.90362 0.04497,5.45221 -0.338424,9.04596 -0.989056,9.27083 z m 451.81303,0.0782 c -0.68721,0.2275 -1.5391,-0.34109 -1.89307,-1.26353 -0.35398,-0.92245 -0.35659,-5.72059 -0.006,-10.66254 0.35079,-4.94194 1.05115,-9.72396 1.55635,-10.6267 0.7353,-1.31391 1.04642,-0.94895 1.55953,1.82937 0.35255,1.9089 0.50407,7.25951 0.33673,11.89024 -0.20299,5.6169 -0.72018,8.5572 -1.55374,8.83316 z M 533.45203,444 c -0.7337,0 -1.62695,-0.47401 -1.98501,-1.05336 -0.35805,-0.57934 -0.34043,-3.72934 0.0392,-7 0.3796,-3.27065 1.096,-5.94664 1.592,-5.94664 0.49599,0 0.90181,0.16358 0.90181,0.36351 0,0.19993 0.43753,2.67061 0.9723,5.49041 0.53476,2.81979 0.71161,5.80621 0.39301,6.63649 C 535.0467,443.32068 534.18573,444 533.45203,444 Z m 8.04797,0 c -0.76008,0 -1.61664,-0.37971 -1.90346,-0.8438 -0.28682,-0.46408 -0.2545,-2.48908 0.0718,-4.5 0.32633,-2.01091 0.96329,-3.6562 1.41548,-3.6562 0.45218,0 1.27643,1.64527 1.83166,3.65615 0.55524,2.01089 0.77483,4.03589 0.48799,4.5 C 543.11665,443.62027 542.26008,444 541.5,444 Z M 82.746976,422.81454 c -0.964163,0.1833 -2.039466,-0.41318 -2.389561,-1.32551 -0.350095,-0.91234 -0.362016,-4.8831 -0.02649,-8.82391 0.335525,-3.94082 0.904577,-8.62762 1.26456,-10.41512 0.359983,-1.7875 1.012448,-3.25 1.449921,-3.25 0.437473,0 1.090087,2.8125 1.450254,6.25 0.360166,3.4375 0.508483,8.72079 0.329594,11.74063 -0.253625,4.28146 -0.711316,5.56403 -2.078278,5.82391 z m 9,-0.0113 c -0.967469,0.19018 -2.046194,-0.4194 -2.407254,-1.3603 -0.359827,-0.93769 -0.169836,-9.55958 0.422202,-19.15975 0.592038,-9.60017 1.337802,-17.71623 1.657254,-18.03568 0.319452,-0.31945 0.894507,-0.26714 1.2779,0.11625 0.383393,0.3834 0.720893,9.11159 0.75,19.39598 L 93.5,422.45863 Z m 35.099054,-0.0317 -18.56537,0.27155 -1.21507,-1.46407 c -0.9118,-1.09865 -1.18959,-11.24179 -1.11298,-40.63839 0.0631,-24.20294 0.48725,-39.89401 1.10992,-41.05748 L 108.07037,338 h 17.89339 17.89338 l 1.57143,1.57143 1.57143,1.57143 -0.0997,38.17857 C 146.8455,400.31964 146.48806,418.625 146.10602,420 l -0.69461,2.5 z M 126.25,417.8429 c 2.0625,0.0864 3.75,-0.20871 3.75,-0.65581 0,-0.4471 -1.31359,-2.07141 -2.91909,-3.60958 -1.60551,-1.53817 -3.20126,-3.98486 -3.54613,-5.43709 -0.34487,-1.45223 -2.15553,-5.79042 -4.02369,-9.64042 -2.61039,-5.37961 -3.75713,-9.61215 -4.95387,-18.28438 -0.85647,-6.20641 -1.61046,-11.60641 -1.67553,-12 -0.0651,-0.39359 -0.46184,0.63438 -0.88169,2.28438 -0.41985,1.65 -0.76624,8.4 -0.76976,15 -0.004,6.6 0.28075,16.275 0.63169,21.5 l 0.63807,9.5 5,0.5929 c 2.75,0.32609 6.6875,0.66359 8.75,0.75 z m 15.55467,-65.25252 c 0.21157,-4.10395 -0.12832,-6.3426 -1.11242,-7.3267 -0.7794,-0.7794 -3.22582,-1.65969 -5.4365,-1.9562 -2.21068,-0.29652 -4.76706,-0.12072 -5.68085,0.39067 l -1.66144,0.92978 5.0444,3.43604 c 2.77442,1.88982 5.83139,5.01103 6.79327,6.93603 L 141.5,358.5 Z M 471.43657,423 c -13.55669,0 -18.52884,-0.32493 -19.12755,-1.25 -0.44496,-0.6875 -0.94073,-19.08615 -1.10171,-40.88588 l -0.29269,-39.63588 1.61412,-1.61412 L 454.14286,338 H 471.5 488.85714 l 1.57143,1.57143 1.57143,1.57143 0.25,29.17857 c 0.1375,16.04821 0.18167,33.80424 0.0981,39.45784 -0.0947,6.40858 -0.61147,10.83308 -1.37244,11.75 C 489.98282,422.72563 486.33773,423 471.43657,423 Z m 4.81343,-5.44783 c 4.5375,-0.38834 8.56421,-1.00895 8.94825,-1.37912 0.38403,-0.37018 1.01113,-8.78354 1.39354,-18.69636 0.38242,-9.91282 0.36859,-20.63821 -0.0307,-23.83419 -0.39931,-3.19599 -0.90426,-5.63265 -1.1221,-5.4148 -0.21785,0.21785 -1.10648,5.54323 -1.97475,11.83419 -1.21852,8.82879 -2.35352,13.03499 -4.97531,18.43811 -1.86816,3.85 -3.67882,8.18819 -4.02369,9.64042 -0.34487,1.45223 -1.94062,3.89892 -3.54613,5.43709 -1.6055,1.53817 -2.91909,3.22059 -2.91909,3.73871 0,0.57031 3.25541,0.66342 8.25,0.23595 z M 456.45308,358 c 0.2492,0 1.14869,-1.4625 1.99887,-3.25 0.85018,-1.7875 3.81577,-4.79621 6.59019,-6.68603 l 5.0444,-3.43604 -1.66144,-0.92978 c -0.91379,-0.51139 -3.42591,-0.69312 -5.58249,-0.40387 -2.15657,0.28926 -4.5784,1.07148 -5.38183,1.73827 C 456.48294,345.84408 456,348.18803 456,352.12244 456,355.3551 456.20389,358 456.45308,358 Z m 50.49816,64.75596 c -0.85182,0.17225 -1.86432,-0.002 -2.25,-0.38806 C 504.31556,421.98222 504,415.95768 504,408.98002 c 0,-6.97765 0.28911,-15.45265 0.64246,-18.83333 0.35335,-3.38068 0.99253,-6.14669 1.4204,-6.14669 0.42787,0 1.06165,2.8125 1.40838,6.25 0.34674,3.4375 0.72006,12.08713 0.8296,19.22139 L 508.5,422.44278 Z m 9,0.006 c -0.85182,0.16874 -1.86432,-0.009 -2.25,-0.39444 C 513.31556,421.98222 513,418.65447 513,414.9729 c 0,-3.68156 0.28617,-8.78156 0.63592,-11.33333 0.34976,-2.55176 0.99719,-4.63957 1.43873,-4.63957 0.44154,0 1.15136,2.1375 1.57737,4.75 0.42601,2.6125 0.79108,7.89 0.81127,11.72777 0.029,5.52111 -0.2866,7.04181 -1.51205,7.28457 z M 100,421.5 c -0.627843,0.38803 -1,-1.82295 -1,-5.94098 C 99,411.85301 99.434975,409 100,409 c 0.55445,0 1,2.64699 1,5.94098 0,3.26754 -0.45,6.2191 -1,6.55902 z m 398.66667,0.5 c -0.18334,0 -0.63334,-0.3 -1,-0.66667 C 497.3,420.96667 497,418.04167 497,414.83333 497,411.61111 497.44762,409 498,409 c 0.5641,0 1,2.83333 1,6.5 0,3.575 -0.15,6.5 -0.33333,6.5 z m -199.41614,-8.25018 c -0.68721,0.22907 -1.4803,-0.18502 -1.76242,-0.92021 -0.28212,-0.73519 -0.39486,-18.21012 -0.25053,-38.83316 L 297.5,336.5 h 1.5 1.5 v 38.41667 c 0,29.83582 -0.27909,38.50969 -1.24947,38.83315 z M 231.85975,404 c -0.40794,0 -0.95669,-0.34784 -1.21945,-0.77298 -0.26275,-0.42514 0.44306,-2.90014 1.56847,-5.5 1.12541,-2.59986 2.66383,-4.72702 3.41872,-4.72702 0.75488,0 1.37251,0.43796 1.37251,0.97325 0,0.53529 -0.98967,3.01029 -2.19927,5.5 C 233.59114,401.96296 232.2677,404 231.85975,404 Z m 134.17285,0 c -0.34874,0 -1.62374,-2.03704 -2.83333,-4.52675 -1.2096,-2.48971 -2.19927,-4.96471 -2.19927,-5.5 0,-0.53529 0.615,-0.97325 1.36667,-0.97325 0.75168,0 2.28704,2.21464 3.41193,4.92141 1.12488,2.70678 1.78488,5.18178 1.46665,5.5 C 366.92703,403.73964 366.38134,404 366.0326,404 Z M 200,391 c -0.55,0 -1,-0.675 -1,-1.5 0,-0.825 0.45,-1.5 1,-1.5 0.55,0 1,0.675 1,1.5 0,0.825 -0.45,1.5 -1,1.5 z m 198,0 c -0.55,0 -1,-0.675 -1,-1.5 0,-0.825 0.45,-1.5 1,-1.5 0.55,0 1,0.675 1,1.5 0,0.825 -0.45,1.5 -1,1.5 z m -155.49193,-9.15404 c -0.80193,0.84894 -1.50129,0.97403 -1.89392,0.33874 -0.34238,-0.55398 4.62832,-13.30966 11.04598,-28.34597 6.41767,-15.0363 12.09965,-27.90123 12.62662,-28.58873 0.52698,-0.6875 1.35304,-1.25 1.83569,-1.25 0.48266,0 0.87756,0.59737 0.87756,1.3275 0,0.73012 -5.22461,13.44262 -11.61025,28.25 -6.38564,14.80737 -12.1824,27.52818 -12.88168,28.26846 z m 114.68587,0.3601 c -0.50494,0.50494 -1.31759,0.32897 -1.9105,-0.41368 -0.56748,-0.71081 -6.26341,-13.40751 -12.65761,-28.21488 C 336.23162,338.77012 331,326.05762 331,325.3275 331,324.59737 331.3949,324 331.87756,324 c 0.48265,0 1.30871,0.5625 1.83569,1.25 0.52697,0.6875 6.22341,13.58616 12.65876,28.66368 6.7236,15.75289 11.32686,27.78745 10.82193,28.29238 z M 165.30549,374 C 164.58747,374 164,373.41869 164,372.70821 c 0,-0.71049 2.07306,-3.29799 4.6068,-5.75 2.53373,-2.45202 17.89152,-18.55292 34.12842,-35.77979 19.96089,-21.17792 29.85015,-30.99305 30.53605,-30.30715 0.6859,0.6859 0.0776,2.1331 -1.87842,4.46867 -1.59107,1.89983 -16.81788,18.12555 -33.83736,36.05715 C 180.53601,359.32869 166.02351,374 165.30549,374 Z m 108.77992,-0.55279 c -0.52097,0.32198 -1.21065,0.15917 -1.53262,-0.3618 -0.32198,-0.52097 -0.15917,-1.21065 0.3618,-1.53262 0.52097,-0.32198 1.21065,-0.15917 1.53262,0.3618 0.32198,0.52097 0.15917,1.21065 -0.3618,1.53262 z m 51,0 c -0.52097,0.32198 -1.21065,0.15917 -1.53262,-0.3618 -0.32198,-0.52097 -0.15917,-1.21065 0.3618,-1.53262 0.52097,-0.32198 1.21065,-0.15917 1.53262,0.3618 0.32198,0.52097 0.15917,1.21065 -0.3618,1.53262 z M 432.67776,374 c -0.72724,0 -16.47724,-16.04694 -35,-35.65986 C 379.15499,318.72722 364,302.30222 364,301.84014 364,301.37806 364.6228,301 365.38401,301 c 0.7612,0 14.21938,13.6125 29.90707,30.25 15.68769,16.6375 30.81488,32.48308 33.61599,35.21241 2.80111,2.72932 5.09293,5.54182 5.09293,6.25 C 434,373.42058 433.40499,374 432.67776,374 Z M 220.86501,362.96858 c -0.34924,0.0173 -1.36174,-1.07775 -2.25,-2.4334 C 217.72675,359.17953 217,357.67428 217,357.19017 c 0,-0.48411 0.82293,-1.62494 1.82874,-2.53518 1.00581,-0.91025 2.07905,-1.65499 2.38499,-1.65499 0.30594,0 1.29832,1.13254 2.2053,2.51677 l 1.64905,2.51676 -1.78404,2.45181 c -0.98122,1.3485 -2.06979,2.46595 -2.41903,2.48324 z m 156.46398,-0.27882 c -0.45594,0.13332 -1.63181,-0.85978 -2.61303,-2.20691 l -1.78404,-2.44932 1.64905,-2.51676 C 375.48795,354.13254 376.55852,353 376.96002,353 c 0.4015,0 1.56514,0.92281 2.58585,2.05069 l 1.85585,2.05069 -1.62187,2.67298 c -0.89203,1.47014 -1.99491,2.78207 -2.45086,2.9154 z M 240.15623,333.40344 c -0.55992,0.34605 -1.31919,0.1419 -1.68727,-0.45366 -0.36808,-0.59556 -0.39167,-1.3604 -0.0524,-1.69964 0.33924,-0.33925 1.09851,-0.1351 1.68727,0.45366 0.71818,0.71818 0.73543,1.27752 0.0524,1.69964 z M 359.2962,333.1038 c -0.71818,0.71818 -1.27752,0.73543 -1.69964,0.0524 -0.34605,-0.55992 -0.1419,-1.31919 0.45366,-1.68727 0.59556,-0.36808 1.3604,-0.39167 1.69964,-0.0524 0.33925,0.33924 0.1351,1.09851 -0.45366,1.68727 z M 133.75,331.79876 c -5.0875,-0.11069 -12.73955,-0.35465 -17.00456,-0.54215 l -7.75456,-0.3409 -1.64769,-2.5147 -1.64769,-2.51469 0.56051,-36.08181 0.56052,-36.08181 1.95452,-2.61135 1.95452,-2.61135 h 17.2193 17.2193 l 1.41792,1.94113 c 1.07604,1.47311 1.41791,5.59324 1.41791,17.08839 0,8.331 -0.29893,25.41892 -0.6643,37.97317 l -0.66429,22.8259 -1.83571,1.83571 L 143,332 Z M 121.2,326 c 3.74,0 6.8,-0.3949 6.8,-0.87756 0,-0.48265 -0.65132,-1.4181 -1.44737,-2.07876 -0.79606,-0.66067 -2.19566,-3.30327 -3.11022,-5.87245 -0.91456,-2.56918 -2.94272,-7.37123 -4.50701,-10.67123 -1.88489,-3.97633 -3.34378,-9.49162 -4.32546,-16.35234 -0.8147,-5.69378 -1.73523,-10.60628 -2.04561,-10.91666 C 112.25395,278.92062 112,288.77667 112,301.13333 c 0,16.14074 0.33788,22.80455 1.2,23.66667 0.69804,0.69804 4.04444,1.2 8,1.2 z m 20.88059,-57.54981 C 142.58627,268.13767 143,265.46567 143,262.51241 c 0,-3.54808 -0.53306,-5.90262 -1.57143,-6.94098 -0.86428,-0.86429 -2.60803,-1.57143 -3.875,-1.57143 -1.26696,0 -3.70982,-0.28125 -5.42857,-0.625 -1.88375,-0.37675 -3.125,-0.21541 -3.125,0.40619 0,0.56716 2.20393,2.61457 4.89763,4.54979 3.31607,2.38237 5.27963,4.67608 6.08059,7.10302 0.65063,1.97143 1.5967,3.32872 2.10237,3.01619 z m 329.80688,63.14454 -16.61253,0.68021 -1.97317,-1.97317 -1.97318,-1.97318 -0.66429,-22.8259 C 450.29893,292.94844 450,275.86052 450,267.52952 c 0,-11.49515 0.34187,-15.61528 1.41791,-17.08839 L 452.83583,248.5 h 17.2193 17.2193 l 1.97609,2.64025 1.9761,2.64025 0.51968,36.35975 0.51968,36.35975 -1.88299,2.20726 -1.88299,2.20726 z M 476.8,326 c 3.95556,0 7.30196,-0.50196 8,-1.2 0.86212,-0.86212 1.2,-7.52593 1.2,-23.66667 0,-12.35666 -0.25395,-22.21271 -0.56433,-21.90233 -0.31038,0.31038 -1.23091,5.22288 -2.04561,10.91666 -0.98168,6.86072 -2.44057,12.37601 -4.32546,16.35234 -1.56429,3.3 -3.59245,8.10205 -4.50701,10.67123 -0.91456,2.56918 -2.31416,5.21178 -3.11022,5.87245 C 470.65132,323.70434 470,324.63979 470,325.12244 470,325.6051 473.06,326 476.8,326 Z m -18.65445,-60.82662 c 1.07422,-2.52936 3.33646,-5.09695 6.26769,-7.11369 2.52272,-1.73567 4.58676,-3.6404 4.58676,-4.23273 0,-0.67286 -1.17257,-0.84245 -3.125,-0.45196 -1.71875,0.34375 -4.16161,0.625 -5.42857,0.625 -1.26697,0 -3.01072,0.70714 -3.875,1.57143 -1.03038,1.03038 -1.57143,3.38312 -1.57143,6.83333 0,2.89405 0.32954,5.59145 0.73231,5.99422 0.40277,0.40277 1.48873,-1.04875 2.41324,-3.2256 z M 194.2962,308.1038 c -0.71818,0.71818 -1.27752,0.73543 -1.69964,0.0524 -0.34605,-0.55992 -0.1419,-1.31919 0.45366,-1.68727 0.59556,-0.36808 1.3604,-0.39167 1.69964,-0.0524 0.33925,0.33924 0.1351,1.09851 -0.45366,1.68727 z M 287,308.70871 c -1.375,0.11479 -3.52309,-0.21213 -4.77352,-0.72648 -1.25044,-0.51435 -2.64582,-1.9416 -3.10085,-3.17166 l -0.82733,-2.23647 -1.16821,2.18282 -1.16821,2.18283 -2.39982,-1.09343 c -1.3199,-0.60138 -3.99794,-3.40033 -5.9512,-6.21987 -1.95326,-2.81955 -6.4992,-7.75036 -10.10208,-10.95737 -3.60288,-3.207 -7.38017,-7.482 -8.39398,-9.5 -1.0138,-2.01799 -2.39505,-6.01406 -3.06944,-8.88015 -0.96055,-4.08225 -0.96472,-6.00324 -0.0192,-8.86808 0.66381,-2.01136 3.45925,-6.14411 6.21209,-9.18389 2.75284,-3.03978 6.05179,-7.82415 7.33099,-10.63192 1.27921,-2.80777 2.76042,-7.83047 3.29159,-11.16155 0.53117,-3.33108 0.63695,-7.60608 0.23508,-9.5 L 262.3652,217.5 l -1.80095,8 c -0.99053,4.4 -3.09549,10.57029 -4.67769,13.71176 -1.58221,3.14146 -4.46895,7.30396 -6.41498,9.25 -1.94604,1.94603 -4.14582,3.53824 -4.88842,3.53824 -0.92074,0 -1.56695,-2.02429 -2.03175,-6.36457 -0.37488,-3.50051 -0.18384,-11.03801 0.42452,-16.75 0.60836,-5.71198 1.80546,-12.86043 2.66023,-15.88543 0.85477,-3.025 2.66222,-7.84819 4.01656,-10.7182 1.5553,-3.29586 4.74041,-7.27965 8.646,-10.814 3.40096,-3.0777 9.00197,-6.94091 12.4467,-8.58493 3.44472,-1.64401 9.29871,-3.6324 13.00886,-4.41863 3.71015,-0.78623 10.57072,-1.42951 15.24572,-1.42951 4.675,0 11.53557,0.64328 15.24572,1.42951 3.71015,0.78623 9.56015,2.78254 13,4.43623 3.43985,1.6537 8.65337,5.11951 11.58559,7.7018 2.93222,2.58229 6.4201,6.41984 7.75085,8.52788 1.33074,2.10803 3.50431,7.10363 4.83014,11.10132 1.32583,3.99769 2.91612,12.07536 3.53398,17.95036 0.61786,5.87501 0.82057,13.63751 0.45046,17.25 -0.45667,4.45737 -1.09989,6.56817 -2.0015,6.56817 -0.73072,0 -2.92078,-1.59221 -4.86682,-3.53824 -1.94603,-1.94604 -4.83277,-6.10854 -6.41498,-9.25 -1.5822,-3.14147 -3.6801,-9.31176 -4.662,-13.71176 l -1.78526,-8 -0.81277,2.99737 c -0.45489,1.67759 -0.35899,5.86056 0.21779,9.5 0.56681,3.57645 2.0779,8.7999 3.35799,11.60767 1.28009,2.80777 4.57976,7.59214 7.3326,10.63192 2.75284,3.03978 5.55218,7.18434 6.22075,9.21014 0.70692,2.14199 0.92875,5.22518 0.53012,7.36808 -0.377,2.02665 -1.60975,5.84033 -2.73942,8.47484 -1.34633,3.13977 -4.32025,6.86667 -8.63207,10.81767 -3.61795,3.3152 -8.32367,8.35969 -10.45715,11.20997 -2.13347,2.85029 -4.94179,5.74959 -6.2407,6.44289 l -2.36166,1.26054 -1.13949,-2.12915 -1.13948,-2.12914 -1.17618,2.3686 c -0.73227,1.47466 -2.56315,2.71359 -4.85114,3.2827 -2.66825,0.6637 -4.09964,0.56167 -5.22517,-0.37244 C 307.69759,307.33406 307,306.13521 307,305.37756 307,304.6199 306.65671,304 306.23713,304 c -0.41958,0 -1.20708,1.0125 -1.75,2.25 -0.81329,1.85376 -1.77961,2.25 -5.48713,2.25 -3.70752,0 -4.67384,-0.39624 -5.48713,-2.25 C 292.96995,305.0125 292.28916,304 292,304 c -0.28916,0 -0.96995,1.0125 -1.51287,2.25 -0.59411,1.35416 -1.9825,2.3331 -3.48713,2.45871 z M 291.43253,288 c 1.26376,0 3.48344,-0.93266 4.93261,-2.07258 L 299,283.85484 l 2.63486,2.07258 c 1.44917,1.13992 3.66885,2.07258 4.93261,2.07258 1.39173,0 2.5393,-0.76103 2.91032,-1.93003 0.39144,-1.23332 -1.03178,-5.2041 -3.94265,-11 C 302.10046,268.23111 300.49289,266 299,266 c -1.49289,0 -3.10046,2.23111 -6.53514,9.06997 -2.91087,5.7959 -4.33409,9.76668 -3.94265,11 0.37102,1.169 1.51859,1.93003 2.91032,1.93003 z m -23.09989,-4.51778 c 2.10796,-0.29276 5.93296,-1.60148 8.5,-2.90827 2.56705,-1.30679 5.64988,-3.43302 6.85075,-4.72496 1.20086,-1.29195 2.6689,-3.63035 3.2623,-5.19645 0.74024,-1.95363 0.76616,-4.00894 0.0826,-6.54762 -0.54799,-2.0351 -2.24103,-4.86126 -3.7623,-6.28036 -1.52127,-1.4191 -3.74887,-3.08517 -4.95021,-3.70237 -1.20134,-0.61721 -3.90134,-1.11968 -6,-1.11661 -2.09866,0.003 -5.51554,0.47761 -7.59307,1.05455 -2.07754,0.57693 -5.34004,2.42104 -7.25,4.09801 L 254,261.20718 l 0.022,5.64641 c 0.0133,3.41431 0.79062,7.33999 1.9664,9.93055 1.32148,2.91162 2.99641,4.75609 5.22803,5.75726 1.99268,0.89396 4.79039,1.26384 7.11625,0.94082 z m 62.94948,0.43183 c 0.98016,0.0473 3.35708,-0.57211 5.28204,-1.37641 2.51838,-1.05225 4.04567,-2.66481 5.44592,-5.75 1.13528,-2.50138 1.95515,-6.51648 1.96796,-9.63764 l 0.022,-5.35 -3.29692,-3.29692 c -1.81331,-1.81331 -5.07581,-3.7908 -7.25,-4.39443 -2.1742,-0.60362 -5.67016,-1.10001 -7.76882,-1.10307 -2.09866,-0.003 -4.79866,0.4994 -6,1.11661 -1.20134,0.6172 -3.42894,2.28327 -4.95021,3.70237 -1.52127,1.4191 -3.21431,4.24526 -3.7623,6.28036 -0.6836,2.53868 -0.65768,4.59399 0.0826,6.54762 0.5934,1.5661 2.06144,3.90375 3.2623,5.19478 1.20087,1.29102 3.98339,3.27139 6.18339,4.40082 2.2,1.12943 5.125,2.39696 6.5,2.81673 1.375,0.41977 3.30195,0.8019 4.28212,0.84918 z m 73.87411,24.48939 c -0.55992,0.34605 -1.31919,0.1419 -1.68727,-0.45366 -0.36808,-0.59556 -0.39167,-1.3604 -0.0524,-1.69964 0.33924,-0.33925 1.09851,-0.1351 1.68727,0.45366 0.71818,0.71818 0.73543,1.27752 0.0524,1.69964 z M 70.454687,308 C 69.654609,308 69,307.61542 69,307.14537 c 0,-0.47005 -1.128591,-10.48255 -2.50798,-22.25 -1.37939,-11.76745 -2.731041,-22.38029 -3.003671,-23.58408 -0.272629,-1.2038 -0.07644,-2.44783 0.435984,-2.76453 0.512421,-0.31669 1.1562,0.21823 1.43062,1.18872 0.27442,0.97049 0.795974,3.67466 1.159009,6.00928 0.363035,2.33462 1.088977,4.50984 1.613206,4.83383 0.584684,0.36136 0.840977,-2.82584 0.662988,-8.24476 L 68.5,253.5 61.75,250.27451 55,247.04902 v -2.41752 c 0,-1.32964 0.711804,-2.69067 1.581787,-3.02451 C 57.451771,241.27314 63.714966,241 70.5,241 c 6.785034,0 13.048229,0.27314 13.918213,0.60699 C 85.288196,241.94083 86,243.23742 86,244.4883 c 0,1.39461 -1.267611,3.24118 -3.277157,4.77393 l -3.277157,2.49961 -1.730384,10.36908 C 76.763591,267.83391 75.297666,279.025 74.457692,287 c -0.839975,7.975 -1.756972,15.9625 -2.037772,17.75 -0.305268,1.94325 -1.095442,3.25 -1.965233,3.25 z m 456.994093,0 c -0.80398,0 -1.55124,-1.6736 -1.89761,-4.25 -0.31426,-2.3375 -1.23633,-10.325 -2.04905,-17.75 -0.81272,-7.425 -2.25845,-18.16609 -3.21274,-23.86908 l -1.73507,-10.36908 -3.27715,-2.49961 C 513.26761,247.72948 512,245.88291 512,244.4883 c 0,-1.25088 0.7118,-2.54747 1.58179,-2.88131 C 514.45177,241.27314 520.71497,241 527.5,241 c 6.78503,0 13.04823,0.27314 13.91821,0.60699 0.86999,0.33384 1.58179,1.69487 1.58179,3.02451 v 2.41752 l -6.75,3.22549 -6.75,3.22549 -0.25837,9.5 c -0.17244,6.34011 0.0607,9.00787 0.70088,8.02046 0.52759,-0.81375 1.23923,-3.28875 1.58142,-5.5 0.3422,-2.21126 0.859,-4.85326 1.14846,-5.87112 0.28945,-1.01787 0.8694,-1.46787 1.28876,-1 0.41936,0.46786 -0.0263,7.15066 -0.99036,14.85066 -0.96406,7.7 -2.3025,18.6125 -2.97431,24.25 -0.86201,7.23355 -1.61177,10.25 -2.5477,10.25 z M 169.38922,292 C 168.62515,292 168,291.37959 168,290.62132 c 0,-0.75827 1.36443,-1.94384 3.03206,-2.6346 1.66764,-0.69076 3.35514,-0.93162 3.75,-0.53524 0.39487,0.39637 -0.34441,1.58194 -1.64284,2.6346 -1.29844,1.05266 -2.98594,1.91392 -3.75,1.91392 z m 259.22156,0 c -0.76406,0 -2.45156,-0.86126 -3.75,-1.91392 -1.29843,-1.05266 -2.03771,-2.23823 -1.64284,-2.6346 0.39486,-0.39638 2.08236,-0.15552 3.75,0.53524 1.66763,0.69076 3.03206,1.87633 3.03206,2.6346 0,0.75827 -0.62515,1.37868 -1.38922,1.37868 z m -242.63559,-8 c -0.62802,0 -0.96709,-0.5625 -0.75349,-1.25 0.21361,-0.6875 6.15694,-4.06794 13.20741,-7.51209 7.05047,-3.44415 13.88821,-6.53043 15.19497,-6.85841 1.65004,-0.41413 2.37592,-0.17048 2.37592,0.7975 0,0.81745 -5.97183,4.17044 -14.44147,8.10841 C 193.61571,280.97843 186.60321,284 185.97519,284 Z m 225.85814,-0.062 C 411.1,283.90397 404.0875,280.88902 396.25,277.23816 387.80317,273.30345 382,270.02661 382,269.1917 c 0,-0.98346 0.717,-1.22856 2.37592,-0.8122 1.30676,0.32798 8.1445,3.41426 15.19497,6.85841 7.05047,3.44415 12.9938,6.82459 13.20741,7.51209 0.2136,0.6875 -0.21163,1.22212 -0.94497,1.18805 z M 206,244.15688 c -4.675,0.23244 -16.4875,0.28185 -26.25,0.10979 L 162,243.95385 V 242.47693 241 h 25.94098 c 17.29412,0 26.1607,0.35551 26.60014,1.06653 0.36253,0.58659 0.50159,1.2018 0.30902,1.36713 -0.19258,0.16533 -4.17514,0.49077 -8.85014,0.72322 z M 409.41667,244 c -20.82198,0 -26.49313,-0.27091 -26.16714,-1.25 0.31575,-0.94832 6.73147,-1.31434 26.58334,-1.5166 L 436,240.96679 V 242.4834 244 Z m -277.64523,-2.14191 c -7.84929,-0.078 -16.06042,-0.41554 -18.24695,-0.75 -2.88997,-0.44205 -4.31949,-1.29073 -5.23526,-3.10809 -0.69286,-1.375 -1.26638,-4.6503 -1.27449,-7.27844 -0.008,-2.62814 0.66769,-11.40314 1.50177,-19.5 0.83408,-8.09686 2.19765,-18.54656 3.03016,-23.22156 0.83251,-4.675 2.41855,-11.55566 3.52453,-15.29035 1.54149,-5.2053 2.55982,-6.99906 4.36252,-7.68445 1.2934,-0.49175 3.41243,-0.63829 4.70896,-0.32565 1.29653,0.31264 7.75732,2.58013 14.35732,5.03887 6.6,2.45873 12.81651,5.25244 13.81446,6.20824 l 1.81446,1.73782 -1.50718,10.40776 c -0.82896,5.72427 -2.24082,19.18276 -3.13748,29.90776 -0.89665,10.725 -2.03778,20.5125 -2.53583,21.75 L 146.04288,242 Z M 124,234.93147 l 6.5,-0.008 -5.35863,-4.99763 c -3.863,-3.60276 -5.74696,-6.28798 -6.75,-9.62081 C 117.62612,217.76257 117,213.05366 117,209.84107 117,206.62848 116.6167,204 116.14822,204 c -0.46848,0 -1.14079,3.7125 -1.49401,8.25 -0.35322,4.5375 -0.64492,11.04014 -0.64822,14.45031 -0.005,4.8543 0.37391,6.42158 1.74401,7.21959 0.9625,0.56061 4.675,1.01581 8.25,1.01157 z m 20.07867,-38.61618 c 0.4451,-0.44841 1.30061,-3.89974 1.90115,-7.66962 0.83377,-5.23396 0.80674,-7.19793 -0.11436,-8.30778 -0.66343,-0.79939 -2.77366,-2.10835 -4.68939,-2.90879 -1.91573,-0.80044 -3.71971,-1.2188 -4.00883,-0.92967 -0.28913,0.28913 0.22996,2.1103 1.15354,4.04705 0.92357,1.93676 1.67922,4.622 1.67922,5.96721 0,1.34521 0.73562,4.28433 1.63471,6.53137 0.89908,2.24704 1.99887,3.71865 2.44396,3.27023 z m 325.47917,45.50179 -17.48674,0.43308 -0.96552,-2.37508 C 450.57454,238.56879 449.39606,228.5 448.48673,217.5 c -0.90933,-11 -2.30428,-24.47405 -3.0999,-29.94234 l -1.44659,-9.94235 1.77988,-1.70323 c 0.97893,-0.93678 7.17988,-3.71493 13.77988,-6.17366 6.6,-2.45874 13.06079,-4.72623 14.35732,-5.03887 1.29653,-0.31264 3.3884,-0.17643 4.64861,0.3027 1.54384,0.58697 2.81973,2.46216 3.91123,5.74833 0.89096,2.68246 2.48065,9.34844 3.53263,14.8133 1.05198,5.46487 2.66709,17.34016 3.58913,26.38953 0.92205,9.04938 1.46582,18.64548 1.20838,21.32467 -0.25743,2.67919 -1.19586,5.59905 -2.08539,6.48858 -1.32946,1.32947 -4.72979,1.69442 -19.10407,2.05042 z m 4.2579,-6.8552 c 3.47366,0.021 7.18616,-0.42771 8.25,-0.99706 1.59496,-0.8536 1.93321,-2.12536 1.92827,-7.25 -0.003,-3.41815 -0.295,-9.92732 -0.64822,-14.46482 -0.35322,-4.5375 -1.02553,-8.25 -1.49401,-8.25 -0.46848,0 -0.85178,2.62848 -0.85178,5.84107 0,3.21259 -0.62612,7.9215 -1.39137,10.46425 -1.00304,3.33283 -2.887,6.01805 -6.75,9.62081 L 467.5,234.92376 Z m -17.64937,-41.49575 c 0.97965,-2.18137 1.79298,-5.18836 1.80741,-6.6822 0.0144,-1.49384 0.78187,-4.30069 1.70544,-6.23745 0.92358,-1.93675 1.44267,-3.75792 1.15354,-4.04705 -0.28912,-0.28913 -2.0931,0.12923 -4.00883,0.92967 -1.91573,0.80044 -4.02596,2.1094 -4.68939,2.90879 -0.91912,1.10747 -0.94862,3.06615 -0.12395,8.22843 0.59527,3.72624 1.37308,7.24545 1.72846,7.82046 0.35537,0.57502 1.44767,-0.73927 2.42732,-2.92065 z M 70.380299,237 H 53.142857 l -1.571428,-1.57143 c -0.864286,-0.86428 -1.564538,-2.32678 -1.556116,-3.25 0.0084,-0.92321 0.378657,-2.25107 0.822745,-2.95078 0.618178,-0.97402 5.361023,-1.20841 20.234688,-1 L 90.5,228.5 l 0.335788,2.95069 c 0.223397,1.96306 -0.258961,3.38557 -1.44113,4.25 C 88.099864,236.64746 82.940784,237 70.380299,237 Z m 457.239401,0 c -12.56048,0 -17.71956,-0.35254 -19.01436,-1.29931 -1.18217,-0.86443 -1.66452,-2.28694 -1.44113,-4.25 L 507.5,228.5 l 19.42725,-0.27221 c 14.87367,-0.20841 19.61651,0.026 20.23469,1 0.44409,0.69971 0.81433,2.02757 0.82275,2.95078 0.008,0.92322 -0.69183,2.38572 -1.55612,3.25 L 544.85714,237 Z M 57.05584,224 c -0.335955,0 -1.552292,-0.65943 -2.702971,-1.46539 -1.150679,-0.80597 -2.825806,-3.01148 -3.722506,-4.90113 -0.8967,-1.88966 -1.62048,-5.39273 -1.608401,-7.78461 0.01208,-2.39188 0.921481,-6.33151 2.020892,-8.75474 1.099412,-2.42323 4.182812,-7.37323 6.852001,-11 2.669189,-3.62677 5.524646,-7.94413 6.34546,-9.59413 0.820813,-1.65 1.79667,-4.68083 2.16857,-6.73518 0.3719,-2.05436 0.177466,-5.58728 -0.432076,-7.85095 -0.609542,-2.26366 -0.848989,-4.37502 -0.532103,-4.69191 0.316886,-0.31689 1.978377,0.74104 3.692203,2.35094 1.713826,1.60991 4.179736,5.1771 5.4798,7.9271 1.907663,4.03524 2.365638,6.65145 2.373522,13.55887 0.0061,5.34849 0.488532,9.21362 1.28615,10.30443 0.771649,1.05529 1.930338,1.4946 2.930124,1.11095 0.909559,-0.34903 2.111778,-1.94852 2.671599,-3.55442 C 84.437926,191.31392 85.302752,190 85.799942,190 c 0.49719,0 2.320598,3.07339 4.05202,6.82976 C 92.264294,202.06338 93,205.04952 93,209.60725 c 0,3.85389 -0.579566,6.81816 -1.646304,8.42024 -0.905467,1.35988 -2.341475,3.03501 -3.19113,3.72251 -0.849654,0.6875 -2.389459,1.25 -3.42179,1.25 h -1.876964 l 2.068094,-2.90437 C 86.069358,218.49823 87,216.75943 87,216.23164 c 0,-0.52779 -2.101265,0.10417 -4.669478,1.40437 C 79.762309,218.9362 76.641604,220 75.395622,220 c -1.245983,0 -3.532218,-0.47998 -5.080522,-1.06661 -1.548305,-0.58664 -3.886963,-2.04914 -5.197019,-3.25 C 63.808026,214.48252 61.905409,211.7 60.890043,209.5 c -1.015365,-2.2 -1.856002,-5.2375 -1.868081,-6.75 -0.01208,-1.5125 -0.417368,-2.75 -0.900642,-2.75 -0.483273,0 -1.495773,1.4625 -2.25,3.25 -0.754226,1.7875 -1.37132,5.5748 -1.37132,8.41622 0,3.7518 0.601326,5.97956 2.196368,8.13697 1.208002,1.63391 1.920502,3.24661 1.583333,3.58378 C 57.942532,223.72413 57.391794,224 57.05584,224 Z M 75.5,215.96937 c 1.65,0 3.620152,-0.39279 4.378115,-0.87288 0.77564,-0.49128 1.04655,-1.40937 0.619684,-2.10005 -0.496393,-0.80318 -2.285223,-1.05508 -5.177512,-0.72907 -2.430495,0.27395 -4.721321,0.80033 -5.090724,1.16973 -0.369403,0.36941 -0.0097,1.09029 0.799397,1.60196 0.809072,0.51167 2.82104,0.93031 4.47104,0.93031 z M 540.94416,224 c -0.33595,0 -0.88669,-0.27587 -1.22386,-0.61303 -0.33717,-0.33717 0.37533,-1.94987 1.58333,-3.58378 1.59504,-2.15741 2.19637,-4.38517 2.19637,-8.13697 0,-2.84142 -0.61709,-6.62872 -1.37132,-8.41622 -0.75423,-1.7875 -1.76673,-3.25 -2.25,-3.25 -0.48327,0 -0.88856,1.2375 -0.90064,2.75 -0.0121,1.5125 -0.85272,4.55 -1.86808,6.75 -1.01537,2.2 -2.91799,4.98252 -4.22804,6.18339 -1.31006,1.20086 -3.64871,2.66336 -5.19702,3.25 -1.5483,0.58663 -3.83454,1.06661 -5.08052,1.06661 -1.24598,0 -4.36669,-1.0638 -6.9349,-2.36399 C 513.10127,216.33581 511,215.70234 511,216.22828 c 0,0.52594 0.9063,2.10844 2.014,3.51665 1.10771,1.40822 1.80366,2.77074 1.54657,3.02783 -0.25708,0.25709 -1.57622,0.18914 -2.9314,-0.15099 -1.35519,-0.34013 -3.46543,-2.2388 -4.68943,-4.21927 -1.56232,-2.52789 -2.22545,-5.16856 -2.22545,-8.86199 0,-3.83603 0.89141,-7.19509 3.29089,-12.40082 1.80999,-3.92683 3.68542,-7.13969 4.16761,-7.13969 0.48219,0 1.26869,1.03099 1.74779,2.2911 0.47909,1.2601 1.54527,2.85063 2.3693,3.53451 1.21121,1.00522 1.80588,0.93577 3.10417,-0.36252 1.22609,-1.22609 1.60826,-3.65873 1.61572,-10.28452 0.008,-7.03333 0.45788,-9.62644 2.37352,-13.67857 1.30006,-2.75 3.76598,-6.31719 5.4798,-7.9271 1.71383,-1.6099 3.37532,-2.66783 3.6922,-2.35094 0.31689,0.31689 0.0774,2.42825 -0.5321,4.69191 -0.60954,2.26367 -0.80398,5.79659 -0.43208,7.85095 0.3719,2.05435 1.34776,5.08518 2.16858,6.73518 0.82081,1.65 3.67627,5.96736 6.34546,9.59413 2.66918,3.62677 5.75258,8.57677 6.852,11 1.09941,2.42323 2.00881,6.36286 2.02089,8.75474 0.0121,2.39188 -0.7117,5.89495 -1.6084,7.78461 -0.8967,1.88965 -2.57183,4.09516 -3.72251,4.90113 C 542.49645,223.34057 541.28012,224 540.94416,224 Z M 522.5,215.96937 c 1.65,0 3.66197,-0.41864 4.47104,-0.93031 0.80907,-0.51167 1.1688,-1.23255 0.7994,-1.60196 -0.36941,-0.3694 -2.66023,-0.89578 -5.09073,-1.16973 -2.89229,-0.32601 -4.68112,-0.0741 -5.17751,0.72907 -0.42686,0.69068 -0.15596,1.60877 0.61968,2.10005 0.75797,0.48009 2.72812,0.87288 4.37812,0.87288 z m -307.67668,1.9517 C 214.0955,217.87766 207.0875,214.7521 199.25,210.97538 191.4125,207.19867 185,203.63418 185,203.05431 185,202.47444 185.63031,202 186.40069,202 c 0.77038,0 7.63288,2.91345 15.25,6.47433 7.71165,3.60507 13.9926,7.15046 14.17263,8 0.17783,0.83912 -0.27217,1.49015 -1,1.44674 z M 382.81751,218 c -0.53029,0 -0.81866,-0.68655 -0.64083,-1.52567 0.18003,-0.84954 6.46098,-4.39493 14.17263,-8 7.61712,-3.56088 14.47962,-6.47433 15.25,-6.47433 0.77038,0 1.40069,0.47336 1.40069,1.05192 0,0.57855 -6.57412,4.17855 -14.60916,8 C 390.3558,214.87336 383.3478,218 382.81751,218 Z M 173.33888,198.72037 c -0.56987,0.18996 -2.11674,-0.53068 -3.4375,-1.60142 -1.32076,-1.07073 -2.07831,-2.2711 -1.68344,-2.66747 0.39486,-0.39638 2.09932,-0.14849 3.78768,0.55085 1.68837,0.69934 2.91217,1.74429 2.71957,2.3221 -0.1926,0.57781 -0.81644,1.20599 -1.38631,1.39594 z M 424.38922,199 C 423.62515,199 423,198.37959 423,197.62132 c 0,-0.75827 1.36443,-1.94384 3.03206,-2.6346 1.66764,-0.69076 3.35514,-0.93162 3.75,-0.53524 0.39487,0.39637 -0.34441,1.58194 -1.64284,2.6346 -1.29844,1.05266 -2.98594,1.91392 -3.75,1.91392 z M 232.67087,185 c -0.73103,0 -9.84353,-9.05169 -20.25,-20.11486 -10.40648,-11.06317 -19.26394,-20.70817 -19.68325,-21.43333 -0.41931,-0.72516 -0.28568,-1.61309 0.29696,-1.97318 0.58263,-0.36009 3.1757,1.53978 5.76238,4.22194 2.58667,2.68215 11.56554,12.16072 19.95304,21.06348 8.3875,8.90276 15.25,16.64788 15.25,17.21139 0,0.56351 -0.59811,1.02456 -1.32913,1.02456 z m 132.63836,0 C 364.58915,185 364,184.54065 364,183.97921 c 0,-0.56143 8.61658,-10.12393 19.14795,-21.25 10.53138,-11.12606 19.72638,-20.57228 20.43333,-20.99159 0.70696,-0.41931 1.56013,-0.31783 1.89594,0.22552 0.3358,0.54334 -2.86383,4.71142 -7.1103,9.26238 -4.24647,4.55096 -13.12706,14.01198 -19.73466,21.02448 C 372.02467,179.2625 366.0293,185 365.30923,185 Z M 58.514698,183 C 58.231614,183 58,182.31055 58,181.46788 c 0,-0.84266 0.652038,-3.09266 1.448973,-5 0.796936,-1.90733 1.921936,-3.46788 2.5,-3.46788 0.578065,0 1.049345,0.7875 1.047289,1.75 -0.0021,0.9625 -0.895442,3.2125 -1.985302,5 -1.08986,1.7875 -2.213177,3.25 -2.496262,3.25 z m 481.233392,-1.15186 c -0.26423,1.20985 -0.94676,0.71532 -2.55069,-1.84814 -1.20446,-1.925 -2.19161,-4.2875 -2.19366,-5.25 -0.002,-0.9625 0.46922,-1.75 1.04729,-1.75 0.57806,0 1.72755,1.61916 2.55442,3.59814 0.82687,1.97897 1.34106,4.34147 1.14264,5.25 z M 193.5,181 c -0.825,0 -1.5,-0.45 -1.5,-1 0,-0.55 0.675,-1 1.5,-1 0.825,0 1.5,0.45 1.5,1 0,0.55 -0.675,1 -1.5,1 z m 211,0 c -0.825,0 -1.5,-0.45 -1.5,-1 0,-0.55 0.675,-1 1.5,-1 0.825,0 1.5,0.45 1.5,1 0,0.55 -0.675,1 -1.5,1 z M 153.62756,167.97221 c -0.62016,-0.0153 -6.87932,-2.44787 -13.90924,-5.40575 -7.02993,-2.95788 -13.89243,-6.10574 -15.25,-6.99526 C 122.98008,154.59607 122,153.00202 122,151.55663 c 0,-1.3185 1.39166,-6.34013 3.09257,-11.15918 1.70091,-4.81905 4.82552,-12.51287 6.94356,-17.09737 2.11805,-4.5845 6.21517,-12.24946 9.10471,-17.03325 2.88955,-4.78379 6.79231,-10.400832 8.6728,-12.482315 C 151.69414,91.703032 153.99929,90 154.93619,90 c 0.93691,0 6.17205,3.987406 11.63364,8.860902 5.46159,4.873498 10.89095,9.935998 12.06523,11.249998 1.17429,1.31401 2.41518,3.31673 2.75753,4.45049 0.44615,1.47751 -1.40992,5.44297 -6.55281,14 -3.9464,6.56624 -9.61989,17.56361 -12.60775,24.43861 -2.98787,6.875 -5.89248,13.0625 -6.4547,13.75 -0.56222,0.6875 -1.52962,1.23749 -2.14977,1.22221 z M 142.25,156.92591 c 0.4125,0.0408 0.75,-0.16674 0.75,-0.46109 0,-0.29435 -0.67031,-1.55821 -1.48958,-2.80857 -0.81927,-1.25037 -2.01065,-4.72204 -2.64751,-7.71482 -0.63686,-2.99279 -1.42905,-8.14143 -1.76042,-11.44143 -0.33137,-3.3 -0.94224,-5.47683 -1.35749,-4.83739 -0.41526,0.63943 -2.342,5.27185 -4.28166,10.29427 -1.93966,5.02241 -3.23298,9.60683 -2.87406,10.18759 0.35893,0.58075 3.41068,2.32749 6.78166,3.88163 3.37098,1.55415 6.46656,2.85906 6.87906,2.89981 z m 27.06535,-30.78575 c 0.65156,-0.54794 2.29381,-3.04185 3.64946,-5.54202 l 2.4648,-4.54576 -1.99823,-2.67641 c -1.09903,-1.47203 -3.03545,-3.3651 -4.30317,-4.20683 l -2.30493,-1.53042 0.83836,4.93064 c 0.4611,2.71185 0.75527,7.09883 0.65371,9.74885 -0.13874,3.62033 0.10988,4.57052 1,3.82195 z M 444.24941,168 c -0.55249,0 -1.47175,-0.56298 -2.04281,-1.25107 -0.57107,-0.68808 -3.23455,-6.43351 -5.91887,-12.7676 -2.68431,-6.3341 -8.34718,-17.32929 -12.58415,-24.43376 C 419.46661,122.4431 416,116.13865 416,115.53768 c 0,-0.60097 0.71159,-2.10861 1.58132,-3.35032 0.86973,-1.24171 6.56408,-6.74184 12.65412,-12.222505 C 436.32548,94.484185 442.08653,90 443.03776,90 c 0.95123,0 3.2681,1.703032 5.1486,3.784515 1.88049,2.081483 5.78325,7.698525 8.6728,12.482315 2.88954,4.78379 6.96477,12.41826 9.05605,16.96548 2.09129,4.54723 5.21589,12.12531 6.94356,16.84018 1.72768,4.71487 3.14123,9.70762 3.14123,11.09501 0,1.38739 -0.7875,3.20677 -1.75,4.04307 -0.9625,0.83631 -7.88037,4.05605 -15.37304,7.15499 C 451.38429,165.4645 444.80189,168 444.24941,168 Z m 11.15737,-11 c 0.22373,0 3.32089,-1.30747 6.88258,-2.90549 3.56168,-1.59802 6.76787,-3.3781 7.12487,-3.95573 0.357,-0.57763 -0.93791,-5.15949 -2.87757,-10.1819 -1.93966,-5.02242 -3.8664,-9.65484 -4.28166,-10.29427 -0.41525,-0.63944 -1.02612,1.53739 -1.35749,4.83739 -0.33137,3.3 -1.12356,8.44864 -1.76042,11.44143 -0.63686,2.99278 -1.82824,6.46445 -2.64751,7.71482 C 455.67031,154.90661 455,156.17047 455,156.46482 455,156.75917 455.18305,157 455.40678,157 Z M 429.3818,127 c 0.20797,0 0.32956,-2.3625 0.27021,-5.25 -0.0593,-2.8875 0.24006,-6.9375 0.66535,-9 0.61258,-2.97075 0.47062,-3.75 -0.68315,-3.75 -0.80103,0 -2.62142,1.38453 -4.04532,3.07673 -1.42389,1.69219 -2.58034,3.60469 -2.56989,4.25 0.0104,0.6453 1.36128,3.31077 3.00184,5.92327 1.64056,2.6125 3.15299,4.75 3.36096,4.75 z m -163.32278,35 c -0.51754,0 -1.26704,-0.52757 -1.66555,-1.17238 -0.39852,-0.6448 -4.22335,-9.3073 -8.49963,-19.25 -4.8706,-11.32452 -7.42369,-18.4325 -6.83445,-19.02762 0.59407,-0.6 1.27038,-0.6 1.83569,0 0.4923,0.5225 4.3173,8.97914 8.5,18.79252 4.18271,9.81339 7.60492,18.47589 7.60492,19.25 C 267,161.36664 266.57656,162 266.05902,162 Z M 332.25,161.76279 c -0.6875,0.22213 -1.25,-0.26699 -1.25,-1.08693 0,-0.81995 3.42221,-9.51995 7.60492,-19.33334 4.1827,-9.81338 8.0077,-18.27002 8.5,-18.79252 0.56531,-0.6 1.24367,-0.6 1.84126,0 0.59563,0.59803 -2.09044,7.96322 -7.25,19.87946 -4.5079,10.4112 -8.75868,19.1112 -9.44618,19.33333 z M 240.16667,157 c -0.45834,0 -1.1211,-0.28777 -1.47282,-0.63948 -0.35171,-0.35171 -0.40015,-1.02671 -0.10765,-1.5 0.29251,-0.47329 0.95528,-0.86052 1.47282,-0.86052 0.51754,0 0.94098,0.675 0.94098,1.5 0,0.825 -0.375,1.5 -0.83333,1.5 z M 358.075,156.80833 C 357.48375,157.00542 357,156.41667 357,155.5 c 0,-0.91667 0.48375,-1.50542 1.075,-1.30833 0.59125,0.19708 1.075,0.78583 1.075,1.30833 0,0.5225 -0.48375,1.11125 -1.075,1.30833 z m -58.82447,-8.05851 c -0.68721,0.22907 -1.48037,-0.18521 -1.76258,-0.92062 -0.2822,-0.73541 -0.39494,-17.98533 -0.25052,-38.33316 L 297.5,72.5 h 1.5 1.5 v 37.91667 c 0,29.43593 -0.27947,38.00982 -1.24947,38.33315 z m -78.34554,-14.78124 c -0.32726,0.0173 -1.33976,-0.79151 -2.25,-1.79732 C 217.74474,131.16545 217,129.6602 217,128.82625 c 0,-0.83395 0.84887,-2.28449 1.88638,-3.22343 l 1.88639,-1.70715 2.08552,2.6513 2.08552,2.65131 -1.72191,2.36944 c -0.94704,1.30318 -1.98966,2.38357 -2.31691,2.40086 z m 158.25732,-1.61547 -1.83768,1.66308 -1.66232,-1.83684 C 374.74804,131.16909 374,129.6602 374,128.82625 c 0,-0.83395 0.82696,-2.26466 1.83769,-3.17936 l 1.83768,-1.66308 1.66232,1.83684 c 0.91427,1.01026 1.66231,2.51915 1.66231,3.3531 0,0.83395 -0.82696,2.26466 -1.83769,3.17936 z M 274,116 c -0.55,0 -1,-0.675 -1,-1.5 0,-0.825 0.45,-1.5 1,-1.5 0.55,0 1,0.675 1,1.5 0,0.825 -0.45,1.5 -1,1.5 z m 50,0 c -0.55,0 -1,-0.675 -1,-1.5 0,-0.825 0.45,-1.5 1,-1.5 0.55,0 1,0.675 1,1.5 0,0.825 -0.45,1.5 -1,1.5 z m -79.72929,-5.87071 c -0.6073,0.6073 -1.30811,0.48453 -1.9232,-0.33691 -0.53225,-0.71081 -1.80325,-3.21981 -2.82445,-5.57555 -1.3917,-3.21044 -1.57071,-4.569176 -0.71475,-5.42514 0.85596,-0.855964 1.80265,0.301142 3.77993,4.62007 1.67668,3.66237 2.28977,6.11023 1.68247,6.71753 z m 111.16899,-0.28333 c -0.84889,0.94974 -1.40486,1.01942 -1.8886,0.23672 -0.37705,-0.61009 0.48089,-3.65708 1.90653,-6.7711 1.9429,-4.24384 2.8781,-5.375854 3.73406,-4.51989 0.85596,0.855964 0.67978,2.2147 -0.70348,5.42514 -1.015,2.35574 -2.38683,4.88885 -3.04851,5.62913 z m -167.09218,-2.8497 c -1.01614,-0.002 -3.34599,-0.91732 -5.17746,-2.03391 -1.83147,-1.1166 -7.56897,-6.131054 -12.75,-11.143232 C 163.09765,86.735355 161,84.104166 161,82.003072 c 0,-1.486647 1.27697,-4.458012 2.83771,-6.603034 1.56073,-2.145021 5.73621,-6.600038 9.27883,-9.900038 3.54263,-3.3 10.02816,-8.886122 14.4123,-12.413605 4.38414,-3.527483 10.27603,-7.891945 13.09309,-9.698805 2.81707,-1.80686 6.26265,-3.571502 7.65686,-3.921426 1.39421,-0.349925 3.44854,-0.147278 4.56517,0.450325 1.11663,0.597604 4.92859,5.923368 8.47102,11.835032 3.54242,5.911663 7.19391,12.233469 8.11442,14.048458 0.92051,1.814988 1.39545,4.176522 1.05542,5.247854 -0.34003,1.071332 -2.72572,3.371381 -5.30153,5.111221 -2.57581,1.739839 -7.15829,5.216334 -10.18329,7.725544 -3.025,2.50921 -9.84362,8.73667 -15.15248,13.838801 -5.30887,5.102131 -10.48387,9.274921 -11.5,9.272861 z m -7.53909,-13.972718 c 0.16964,-0.480777 -0.61786,-2.689829 -1.75,-4.909003 C 177.92629,85.895364 177,82.915552 177,81.492734 c 0,-1.422818 1.86989,-5.993984 4.15532,-10.158145 3.3647,-6.130666 3.76627,-7.362994 2.11058,-6.476894 -1.12461,0.601871 -4.7945,4.09519 -8.15532,7.762932 C 171.74976,76.288369 169,80.124705 169,81.145817 c 0,1.021113 2.5875,4.308011 5.75,7.304218 3.1625,2.996207 5.88879,5.054285 6.05843,4.573507 z M 214.24648,76 c 0.71381,0 2.97536,-1.382762 5.02568,-3.072804 2.05031,-1.690042 3.72362,-3.827542 3.71846,-4.75 -0.005,-0.922458 -1.36427,-4.039696 -3.02023,-6.927196 -1.65597,-2.8875 -3.16754,-5.25 -3.35905,-5.25 -0.19152,0 -0.30812,3.0375 -0.25911,6.75 0.0615,4.656532 -0.45252,7.757966 -1.65725,10 -1.30761,2.433502 -1.42028,3.25 -0.4485,3.25 z m 195.85289,31 c -1.45088,0 -6.10226,-3.72893 -13.51982,-10.838601 -6.21939,-5.961231 -14.35175,-13.048731 -18.07192,-15.75 -3.72018,-2.70127 -7.89942,-5.846779 -9.28721,-6.990021 -1.90113,-1.566116 -2.37335,-2.675925 -1.91525,-4.501156 0.33441,-1.332393 4.00963,-8.147469 8.16716,-15.144613 4.15752,-6.997145 8.49397,-13.222389 9.63654,-13.833876 1.14258,-0.611488 3.21813,-0.825494 4.61234,-0.475569 1.39421,0.349924 4.83979,2.114566 7.65686,3.921426 2.81706,1.80686 8.70895,6.171322 13.09309,9.698805 4.38414,3.527483 10.86967,9.113605 14.4123,12.413605 3.54262,3.3 7.7181,7.755017 9.27883,9.900038 1.56074,2.145022 2.83771,5.101087 2.83771,6.569034 0,2.041453 -2.05732,4.666206 -8.75,11.163331 -4.8125,4.671885 -10.36748,9.703317 -12.34439,11.180967 C 413.92869,105.79102 411.31589,107 410.09937,107 Z M 421.25,90.50758 c 2.3375,-2.048829 5.0375,-4.626045 6,-5.727146 0.9625,-1.101101 1.75,-2.835685 1.75,-3.854631 0,-1.018947 -2.77366,-4.817684 -6.1637,-8.44164 -3.39003,-3.623955 -7.05992,-7.068658 -8.15531,-7.654894 -1.57471,-0.842758 -1.12178,0.519024 2.16369,6.50532 C 419.13011,75.49875 421,80.069916 421,81.492734 c 0,1.422818 -0.9,4.351088 -2,6.507266 -1.1,2.156178 -2,4.440614 -2,5.076524 0,0.635911 1.9125,-0.520114 4.25,-2.568944 z M 383.67161,76 c 0.83354,0 0.56734,-1.466238 -0.84644,-4.662334 -1.62143,-3.665497 -1.92825,-5.803559 -1.43504,-10 C 381.73517,58.40195 381.79764,56 381.52896,56 c -0.26868,0 -1.84338,2.3625 -3.49935,5.25 -1.65596,2.8875 -3.01506,6.004738 -3.02023,6.927196 -0.005,0.922458 1.66815,3.059958 3.71846,4.75 C 380.77816,74.617238 383.00285,76 383.67161,76 Z M 253,62.355335 c -6.875,2.307519 -13.29007,4.038064 -14.2557,3.845655 -1.00748,-0.200747 -4.77147,-5.463934 -8.83225,-12.350127 -3.89209,-6.600161 -7.74993,-13.61194 -8.57296,-15.581731 l -1.49642,-3.58144 1.92061,-2.593846 c 1.05634,-1.426615 3.27449,-3.516181 4.92923,-4.643479 1.65473,-1.127298 6.74184,-3.524868 11.30467,-5.327934 4.56284,-1.803067 14.39098,-4.813365 21.84032,-6.689551 7.44934,-1.876187 17.62086,-3.82085 22.60338,-4.321473 5.01712,-0.504099 9.77036,-0.530463 10.65318,-0.05909 1.30006,0.694155 1.71885,3.616452 2.27063,15.844297 0.37212,8.246238 0.38808,16.797271 0.0355,19.002294 -0.35259,2.205024 -1.39617,4.692483 -2.31906,5.527685 -0.92289,0.835203 -7.50619,2.691858 -14.62955,4.1259 C 271.3282,56.986539 259.875,60.047816 253,62.355335 Z M 269.05259,51 c 0.57893,0 4.29143,-0.719828 8.25,-1.599619 3.95858,-0.87979 8.20991,-2.240164 9.44741,-3.023053 L 289,44.953894 V 35.976947 C 289,31.039626 288.6112,27 288.136,27 c -0.4752,0 -2.00184,1.6875 -3.39254,3.75 -1.3907,2.0625 -3.03996,5.371327 -3.66502,7.35295 -0.62507,1.981622 -2.13592,4.496328 -3.35746,5.588234 -1.22154,1.091906 -3.90848,2.994781 -5.97098,4.22861 C 269.6875,49.153623 268,50.351417 268,50.581559 268,50.811702 268.47367,51 269.05259,51 Z M 234.03834,46.476303 C 234.56725,46.149418 235,44.433651 235,42.663489 c 0,-1.770162 0.70727,-4.228252 1.57172,-5.462421 0.86445,-1.23417 4.04942,-4.074327 7.07771,-6.311461 3.0283,-2.237133 5.27182,-4.301685 4.98562,-4.587894 -0.28621,-0.286209 -3.67543,0.685231 -7.53159,2.158755 -3.85617,1.473523 -8.15697,3.580384 -9.55734,4.681913 C 230.14575,34.24391 229,36.030426 229,37.112418 c 0,1.081992 0.91725,3.765225 2.03834,5.96274 1.12109,2.197515 2.47109,3.72803 3,3.401145 z M 359.29605,66.179255 C 358.30822,66.419386 351.875,64.714731 345,62.391132 c -6.875,-2.323598 -18.3282,-5.399507 -25.45156,-6.835353 -7.12336,-1.435847 -13.70512,-3.292581 -14.62612,-4.126078 -0.921,-0.833496 -1.95086,-3.183654 -2.28856,-5.222574 -0.33771,-2.03892 -0.32263,-10.591702 0.0335,-19.006182 l 0.64753,-15.299056 1.7101,-0.915214 c 1.04443,-0.558963 5.25513,-0.519422 10.81733,0.101582 5.00898,0.559238 15.08905,2.523373 22.40016,4.364744 7.3111,1.841372 17.30313,4.964999 22.20451,6.941394 4.90138,1.976394 10.3812,4.600437 12.17739,5.831206 1.79619,1.230769 3.73907,3.276464 4.3175,4.545989 0.78695,1.727171 0.67574,3.208025 -0.44178,5.88264 -0.82142,1.965927 -4.62424,8.865065 -8.4507,15.331419 -3.90228,6.594463 -7.74587,11.948718 -8.75326,12.193606 z M 328.25,50.89605 c 0.9625,0.05717 1.75,-0.08435 1.75,-0.314491 0,-0.230142 -1.6875,-1.427936 -3.75,-2.661765 -2.0625,-1.233829 -4.74944,-3.136704 -5.97098,-4.22861 -1.22154,-1.091906 -2.73239,-3.606612 -3.35746,-5.588234 C 316.2965,36.121327 314.64724,32.8125 313.25654,30.75 311.86584,28.6875 310.3392,27 309.864,27 309.3888,27 309,30.9949 309,35.877555 c 0,6.749914 0.36681,9.181985 1.53053,10.147783 0.84179,0.698625 4.77929,2.056948 8.75,3.018495 3.97071,0.961547 8.00697,1.795045 8.96947,1.852217 z m 36.71582,-4.374926 c 0.37777,-0.233477 1.49579,-2.218377 2.48447,-4.410889 1.05138,-2.331553 1.54572,-4.990008 1.19082,-6.404048 -0.44133,-1.758377 -2.17948,-3.100138 -6.37395,-4.920369 -3.17194,-1.376488 -7.24409,-3.076977 -9.04922,-3.778864 -1.80514,-0.701887 -3.52761,-1.030616 -3.82772,-0.73051 -0.3001,0.300107 1.93205,2.37603 4.96035,4.613163 3.02829,2.237134 6.21326,5.077291 7.07771,6.311461 0.86445,1.234169 1.57172,3.643817 1.57172,5.354772 0,1.710954 0.28777,3.398593 0.63948,3.750307 0.35171,0.351714 0.94857,0.448454 1.32634,0.214977 z" />
  </g>
</svg>