<?xml version="1.0" encoding="UTF-8" standalone="no"?>
<!-- Created with Inkscape (http://www.inkscape.org/) -->

<svg
   width="180"
   height="180"
   viewBox="0 0 180 180"
   version="1.1"
   id="svg1"
   xml:space="preserve"
   inkscape:version="1.4.2 (f4327f4, 2025-05-13)"
   sodipodi:docname="raven.svg"
   xmlns:inkscape="http://www.inkscape.org/namespaces/inkscape"
   xmlns:sodipodi="http://sodipodi.sourceforge.net/DTD/sodipodi-0.dtd"
   xmlns="http://www.w3.org/2000/svg"
   xmlns:svg="http://www.w3.org/2000/svg"><sodipodi:namedview
     id="namedview1"
     pagecolor="#ffffff"
     bordercolor="#000000"
     borderopacity="0.25"
     inkscape:showpageshadow="2"
     inkscape:pageopacity="0.0"
     inkscape:pagecheckerboard="0"
     inkscape:deskcolor="#d1d1d1"
     inkscape:document-units="px"
     inkscape:zoom="3.1701954"
     inkscape:cx="60.879528"
     inkscape:cy="103.62137"
     inkscape:window-width="1920"
     inkscape:window-height="1009"
     inkscape:window-x="-8"
     inkscape:window-y="549"
     inkscape:window-maximized="1"
     inkscape:current-layer="layer1" /><defs
     id="defs1"><clipPath
       clipPathUnits="userSpaceOnUse"
       id="clipPath1"><rect
         style="fill:#000000"
         id="rect2"
         width="101.71004"
         height="93.011154"
         x="76.951675"
         y="83.197029" /></clipPath><clipPath
       clipPathUnits="userSpaceOnUse"
       id="clipPath12"><g
         id="g14"><rect
           style="fill:#000000"
           id="rect13"
           width="47.063198"
           height="101.71004"
           x="72.713753"
           y="78.736061" /><rect
           style="fill:#000000"
           id="rect14"
           width="69.814133"
           height="84.535316"
           x="106.84016"
           y="94.79554"
           ry="0" /></g></clipPath><clipPath
       clipPathUnits="userSpaceOnUse"
       id="clipPath15"><rect
         style="fill:#000000"
         id="rect16"
         width="91.477013"
         height="98.574364"
         x="81.225281"
         y="80.436684" /></clipPath><clipPath
       clipPathUnits="userSpaceOnUse"
       id="clipPath18"><g
         id="g20"><rect
           style="fill:#000000"
           id="rect19"
           width="30.282045"
           height="90.846138"
           x="82.960182"
           y="83.275627" /><rect
           style="fill:#000000"
           id="rect20"
           width="60.879528"
           height="79.963524"
           x="109.77242"
           y="94.158234" /></g></clipPath><clipPath
       clipPathUnits="userSpaceOnUse"
       id="clipPath3"><g
         id="g5"><rect
           style="fill:#000000"
           id="rect4"
           width="59.617775"
           height="155.19548"
           x="17.664526"
           y="14.825584" /><rect
           style="fill:#000000"
           id="rect5"
           width="98.416649"
           height="133.7457"
           x="70.973541"
           y="33.120987" /></g></clipPath></defs><g
     inkscape:label="Layer 1"
     inkscape:groupmode="layer"
     id="layer1"><path
       style="fill:#000000"
       d="m -33.331118,155.94426 c -0.309227,-0.5571 -0.370907,-3.64486 -0.0838,-4.19498 0.127373,-0.24405 0.999448,-1.40775 1.937944,-2.586 2.727253,-3.42397 3.364174,-4.51407 2.637471,-4.51407 -0.382507,0 -2.728735,1.36794 -4.502262,2.62498 -2.891997,2.0498 -3.778631,3.03117 -3.788594,4.19339 -0.0056,0.65059 -0.251693,0.91614 -1.258015,1.35734 -0.970468,0.42548 -1.063516,0.55171 -1.333397,1.8088 -0.103892,0.48392 -0.247867,0.87986 -0.319945,0.87986 -0.07208,0 -0.27982,-0.39594 -0.461647,-0.87986 -0.668695,-1.77969 -0.238622,-3.66387 1.20204,-5.26623 0.601832,-0.66939 0.648401,-0.76431 0.325281,-0.66303 -0.602978,0.18899 -1.56094,0.90848 -2.091346,1.57071 -0.334822,0.41804 -0.736472,0.7005 -1.267804,0.89156 -0.91045,0.32739 -1.023005,0.44075 -1.695133,1.70727 -0.279146,0.526 -0.557748,0.95637 -0.619114,0.95637 -0.228417,0 -0.303195,-0.92488 -0.144491,-1.7871 0.37862,-2.05698 0.982464,-3.28165 1.831702,-3.7149 0.474226,-0.24193 4.167434,-1.79948 11.399311,-4.80747 1.415519,-0.58877 1.576832,-0.70206 2.423748,-1.70221 1.173445,-1.38576 3.00447,-4.13077 3.711859,-5.56469 0.305736,-0.61975 0.654354,-1.64147 0.774706,-2.2705 0.228079,-1.19205 0.2969,-4.28524 0.101716,-4.57162 -0.06183,-0.0907 -0.835437,-0.25277 -1.719122,-0.36011 -0.883686,-0.10735 -2.260859,-0.29094 -3.060384,-0.40798 -2.027601,-0.29682 -1.989099,-0.30229 -1.990103,0.2827 -0.0021,1.21681 -0.601059,2.25704 -1.299614,2.25704 -0.426603,0 -1.232262,-0.80121 -1.777962,-1.76814 -0.523764,-0.92805 -0.981304,-1.20544 -3.271866,-1.98357 -0.925766,-0.31449 -2.423977,-0.89989 -3.329356,-1.30088 -0.90538,-0.40099 -1.68428,-0.66737 -1.730888,-0.59195 -0.04661,0.0754 -0.223608,1.53122 -0.39333,3.23512 -0.169723,1.7039 -0.419182,3.3994 -0.554355,3.76777 -0.135173,0.36837 -0.675577,1.34765 -1.200899,2.17618 -1.408839,2.22201 -1.974136,3.33422 -1.788849,3.5195 0.106065,0.10607 0.4203,0.0603 0.980917,-0.14288 4.992202,-1.80926 5.072847,-1.82068 6.291574,-0.89113 0.901028,0.68724 0.880481,1.06933 -0.06334,1.17786 -0.394564,0.0454 -0.86295,0.21423 -1.040857,0.37523 -0.320252,0.28983 -0.332536,0.28775 -1.236004,-0.20893 l -0.912537,-0.50167 -0.953971,0.31911 c -0.524684,0.17552 -1.367122,0.58259 -1.872086,0.90462 -0.848493,0.54109 -0.99934,0.72939 -1.989249,2.48305 -1.808583,3.20399 -1.91274,3.47296 -1.91274,4.9394 0,1.5685 -0.183665,1.85843 -1.627627,2.56929 -1.102207,0.54261 -1.291746,0.75763 -1.666927,1.89102 -0.334372,1.01011 -0.56096,1.25063 -0.850108,0.90241 -0.152886,-0.18412 -0.231385,-0.8038 -0.267503,-2.11169 -0.05936,-2.14965 -0.184621,-1.87064 2.169721,-4.833 2.484575,-3.12623 3.263249,-4.43953 2.632262,-4.43953 -0.788122,0 -5.964567,3.42442 -7.504999,4.96486 -0.518638,0.51863 -0.650264,0.78011 -0.80116,1.59151 -0.09931,0.534 -0.256207,1.06206 -0.348664,1.17347 -0.09246,0.1114 -0.512633,0.32644 -0.933725,0.47786 -0.960941,0.34555 -1.084346,0.49834 -1.314716,1.6277 -0.219433,1.07575 -0.311892,1.20977 -0.550644,0.79815 -0.383804,-0.66168 -0.560862,-1.42211 -0.563063,-2.41825 -0.0027,-1.24328 0.424872,-2.27963 1.395715,-3.38257 0.345918,-0.39298 0.592533,-0.75092 0.548033,-0.79542 -0.154077,-0.15408 -1.413842,0.74391 -2.175581,1.55079 -0.54373,0.57596 -0.95206,0.86019 -1.411289,0.98238 -0.714135,0.19 -1.170334,0.68761 -1.727066,1.88383 -0.186054,0.39976 -0.39174,0.72684 -0.45708,0.72684 -0.21086,0 -0.274898,-0.96983 -0.126298,-1.91274 0.202298,-1.28364 0.553228,-2.28458 1.024173,-2.92119 0.419415,-0.56696 0.687929,-0.69804 5.604924,-2.73624 1.094087,-0.45352 3.350047,-1.39746 5.013244,-2.09764 l 3.023995,-1.27306 0.92979,-1.07114 c 1.1679,-1.34544 2.884945,-3.89539 3.647353,-5.4166 0.775663,-1.54767 1.082097,-2.97772 1.07546,-5.01891 -0.0045,-1.3927 -0.279967,-3.49213 -0.474693,-3.61819 -0.619104,-0.40078 -2.543222,-2.11246 -3.709028,-3.29953 -0.831192,-0.84635 -1.571423,-1.50163 -1.644956,-1.45619 -0.07353,0.0455 -0.134711,0.47451 -0.135952,0.95346 -0.0024,0.94007 -0.259731,1.63593 -0.604886,1.63593 -0.357821,0 -1.208248,-1.95844 -2.324585,-5.35325 -1.250658,-3.80329 -1.101103,-3.60301 -4.719232,-6.31985 -4.174169,-3.13438 -6.041574,-4.84978 -7.781321,-7.14793 -0.999117,-1.3198 -2.174403,-3.634387 -2.680787,-5.279493 -0.220199,-0.715365 -0.4663,-1.507239 -0.546893,-1.759721 -0.531137,-1.663958 -1.437762,-6.718806 -1.919641,-10.702877 -0.131769,-1.08943 -0.269618,-2.010822 -0.306331,-2.047535 -0.03671,-0.03671 -0.318769,0.05284 -0.626789,0.199002 -0.414925,0.196895 -0.833075,0.250327 -1.613789,0.206212 -0.901603,-0.05094 -1.114277,-0.120068 -1.472939,-0.478729 -0.371014,-0.371014 -0.417728,-0.528694 -0.406489,-1.37208 0.01128,-0.84647 0.128577,-1.197325 1.050271,-3.141527 0.570664,-1.20375 1.009895,-2.216312 0.976068,-2.250139 -0.03383,-0.03383 -0.334302,0.03566 -0.667722,0.154415 -0.953229,0.339513 -2.299066,0.296225 -2.681542,-0.08625 -0.520514,-0.520514 -0.292668,-0.75233 1.289863,-1.312335 0.415099,-0.14689 1.099273,-0.587567 1.545739,-0.995612 0.816801,-0.746509 3.200733,-3.661232 3.58155,-4.378993 0.201972,-0.380675 0.180736,-0.375281 -0.535567,0.136036 -1.263008,0.90157 -1.989784,1.087296 -2.900227,0.741146 -0.288767,-0.109789 -0.568092,-0.106939 -0.920583,0.0094 -1.066866,0.352098 -1.460717,-0.397433 -0.75516,-1.43713 0.418958,-0.617369 0.315009,-0.690117 -0.608475,-0.425839 -0.637771,0.182515 -1.841387,-0.187511 -2.152016,-0.661591 -0.223274,-0.34076 -0.217788,-0.422204 0.07268,-1.078847 0.358647,-0.81078 0.984607,-1.666486 1.982336,-2.709909 0.380401,-0.397823 0.661361,-0.751679 0.624355,-0.786345 -0.03701,-0.03467 -0.583724,0.232121 -1.214928,0.592861 -1.244684,0.711352 -2.142269,0.974466 -2.142269,0.627976 0,-0.289676 0.605597,-1.018051 2.710896,-3.260501 3.414711,-3.637162 3.963312,-4.378714 4.932124,-6.666812 1.243066,-2.935822 2.343209,-4.968872 3.622129,-6.693648 0.696008,-0.93865 0.73422,-1.039893 0.692615,-1.835066 -0.04078,-0.779468 -0.0019,-0.89063 0.526042,-1.505607 0.313541,-0.365201 0.714376,-0.722345 0.890743,-0.793652 0.232557,-0.09402 0.07891,-0.132314 -0.559192,-0.139349 -0.781986,-0.0086 -0.879861,-0.04461 -0.879861,-0.323539 0,-0.439741 0.906164,-1.2209 2.504757,-2.159227 l 1.364944,-0.801183 -0.672442,-0.282859 c -0.751146,-0.315966 -1.199494,-0.79331 -1.204607,-1.282513 -0.0096,-0.920856 1.310474,-0.986445 5.734817,-0.284938 1.551362,0.245978 1.899562,0.225519 3.978499,-0.233765 1.455857,-0.321631 3.016578,-0.611927 4.514066,-0.83962 2.358883,-0.358669 4.455712,-0.774722 6.999494,-1.388839 2.508723,-0.605654 2.545621,-0.613704 5.777607,-1.260523 5.616018,-1.123936 7.455177,-1.102039 11.140443,0.132639 1.654691,0.554372 4.202087,1.837516 4.699835,2.367345 0.583674,0.621293 0.26551,0.745491 -2.188852,0.85444 -1.758071,0.07804 -2.614964,0.203869 -4.470275,0.656428 -5.818942,1.419394 -9.815083,2.884683 -15.950603,5.848703 -2.726979,1.317381 -4.359276,1.938223 -5.548592,2.110399 -0.856547,0.124002 -1.142866,0.295189 -1.021725,0.61088 0.123176,0.32099 0.685695,0.308584 2.01635,-0.04447 1.391696,-0.369251 2.083507,-0.656517 5.126142,-2.128567 3.715222,-1.797454 4.341708,-2.070272 7.075071,-3.081008 2.964182,-1.096087 5.954095,-2.030618 6.074606,-1.898685 0.04756,0.05207 0.01762,0.120066 -0.06654,0.151093 -0.381483,0.140639 -2.897379,1.882095 -4.355085,3.014507 -2.033141,1.579438 -5.126856,4.637089 -5.919729,5.850723 -0.334178,0.511519 -0.732746,1.327919 -0.885708,1.814224 -0.237919,0.756407 -0.250809,0.975321 -0.08919,1.514759 0.542914,1.812086 2.429786,3.464955 7.723849,6.765965 1.343037,0.837425 2.513634,1.550082 2.601326,1.583682 0.560082,0.214599 4.35921,2.938283 5.25397,3.766694 1.024193,0.948246 2.696972,3.248761 3.781339,5.200347 1.703781,3.066373 2.735373,5.061822 4.904617,9.487189 5.792132,11.81624 5.304863,10.899427 6.600328,12.418746 1.079099,1.265565 5.5772947,6.627808 7.1679984,8.54488 5.3566646,6.45571 9.2133682,12.08775 9.5040487,13.87901 0.07631,0.47024 0.025106,0.6244 -0.3230148,0.97252 -0.3820849,0.38209 -0.4857952,0.40787 -1.357115,0.33738 -0.9567511,-0.0774 -2.6789162,-0.79003 -4.21551583,-1.74438 l -0.67077447,-0.41661 0.4152354,0.62746 c 0.23576898,0.35627 0.3934095,0.78155 0.36473619,0.98398 -0.0435762,0.30764 -0.14931008,0.36288 -0.77125089,0.40291 -0.3964133,0.0255 -1.035762,-0.0606 -1.420775,-0.19127 -1.1164832,-0.37906 -1.1034998,-0.29248 0.1002288,0.66838 1.7969261,1.43438 1.95194086,2.11898 0.4345964,1.91936 -1.0098014,-0.13286 -4.0480794,-1.05064 -5.8512564,-1.76751 -3.7939435,-1.50831 -6.4290505,-3.1089 -8.5808895,-5.21213 l -1.38432,-1.35305 -1.999759,-0.056 c -1.659533,-0.0464 -2.201679,-0.12446 -3.18659,-0.45852 -3.696808,-1.25389 -6.8821,-3.74199 -8.256435,-6.44929 -1.073464,-2.11461 -3.994417,-5.934302 -6.523597,-8.530819 -0.892021,-0.91577 -1.727218,-1.644956 -1.884103,-1.644956 -0.527817,0 -0.449848,0.127165 1.782593,2.907364 1.32948,1.655686 2.912559,3.824435 5.963799,8.170141 1.990286,2.83465 4.366151,4.97324 6.891171,6.20295 1.826676,0.88961 3.068829,1.21555 5.105251,1.33962 l 1.517102,0.0924 1.08796,1.04154 c 1.261474,1.20764 2.71317,2.18552 4.76075,3.2069 1.936039,0.96573 4.5320407,2.00412 6.3918383,2.55671 l 0.959657,0.28513 4.3738109,7.87097 c 4.1223561,7.41845 4.4434991,7.94574 5.5859715,9.17163 2.995663,3.21438 4.9433206,5.44872 5.4988801,6.30828 0.6704302,1.03728 0.7050792,1.15962 0.3653602,1.28998 -0.5985936,0.2297 -4.7528886,-1.1687 -6.3766736,-2.1465 -0.4711021,-0.28368 -1.118239,-0.56488 -1.4380819,-0.62488 -1.47023999,-0.27582 -3.22534232,-1.37766 -5.491025,-3.44723 -1.7243582,-1.5751 -2.5547388,-2.16988 -4.1315178,-2.95931 -2.0642597,-1.03349 -6.2001717,-2.8579 -6.4788107,-2.8579 -0.09172,0 -0.23756,-0.1323 -0.324098,-0.294 -0.138999,-0.25972 -0.224363,-0.27467 -0.732225,-0.12822 -0.316186,0.0912 -1.504474,0.16775 -2.640642,0.17018 -1.822466,0.004 -2.241894,-0.0467 -3.561292,-0.42925 -0.822543,-0.23851 -1.531747,-0.39745 -1.576008,-0.35318 -0.08416,0.0842 -0.257612,1.58347 -0.526819,4.55391 -0.181754,2.00548 -0.361475,2.44784 -2.241393,5.5169 -0.595609,0.97236 -1.130926,1.91917 -1.189593,2.10401 -0.09392,0.29591 -0.05093,0.33609 0.359625,0.33609 0.256461,0 1.143522,-0.26981 1.971245,-0.59957 3.179889,-1.26687 3.954555,-1.32377 5.066285,-0.37217 0.344749,0.29509 0.626816,0.62642 0.626816,0.73629 0,0.20827 -0.457212,0.38279 -1.012244,0.38638 -0.178011,0.001 -0.498736,0.1398 -0.712722,0.30813 -0.498682,0.39226 -0.562927,0.38704 -1.27581,-0.10358 -0.794422,-0.54675 -1.434892,-0.5071 -2.835853,0.17552 -1.851758,0.90229 -1.914093,0.97802 -3.861335,4.69144 l -1.013379,1.93252 v 1.30739 c 0,1.16234 -0.04138,1.35657 -0.372956,1.75063 -0.205125,0.24378 -0.669921,0.57241 -1.032879,0.73031 -1.202404,0.52306 -1.457051,0.78051 -1.804384,1.82424 -0.401053,1.20517 -0.66481,1.47795 -0.943526,0.97582 z M -54.931475,45.249029 c 0.320346,-0.255341 0.788755,-0.854177 1.04091,-1.330747 l 0.458463,-0.866492 -0.346771,-0.34677 c -0.305231,-0.305231 -0.488459,-0.344202 -1.529597,-0.325327 -1.432664,0.02597 -2.328841,0.374884 -3.327675,1.295578 -0.914937,0.843359 -0.873891,1.146373 0.232109,1.713499 0.726608,0.372585 0.98156,0.42424 1.865859,0.378034 0.866104,-0.04526 1.114187,-0.125203 1.606702,-0.517775 z M 79.685359,155.42095 c -0.168486,-1.12355 0.01281,-2.3766 0.4827,-3.33624 0.469825,-0.95951 1.893083,-2.3995 2.902511,-2.93663 1.781981,-0.94822 3.874839,-2.12703 4.600641,-2.59132 1.449493,-0.92723 1.014538,-1.23585 -1.679629,-1.19179 -1.674531,0.0274 -3.395142,0.23944 -4.383068,0.54019 -0.294562,0.0897 -0.850672,0.45506 -1.2358,0.81196 -0.902241,0.83613 -1.245849,0.93991 -1.994429,0.60234 -0.327388,-0.14763 -0.59525,-0.32213 -0.59525,-0.38778 0,-0.0657 -0.206773,-0.26659 -0.459495,-0.44655 -0.449616,-0.32015 -0.478401,-0.32168 -1.338918,-0.0711 -1.200442,0.3495 -1.41499,0.38275 -1.41499,0.21925 0,-0.25431 1.587015,-1.40882 2.601326,-1.89239 l 0.994625,-0.47418 5.054733,0.0556 c 4.53138,0.0499 5.076196,0.0298 5.262026,-0.19414 0.176323,-0.21246 0.167834,-0.29337 -0.05682,-0.54162 -0.395341,-0.43684 -2.191341,-1.60848 -3.43113,-2.23832 -1.185208,-0.60212 -1.223409,-0.60453 -3.338397,-0.211 l -1.100167,0.20471 -0.767763,-0.71815 c -0.617106,-0.57723 -0.881648,-0.72198 -1.348139,-0.73768 -1.8178,-0.0612 -1.906537,-0.32881 -0.274339,-0.82744 1.174417,-0.35879 2.355802,-0.43334 3.583992,-0.22618 1.158196,0.19535 2.173587,0.65642 4.60386,2.09053 1.328474,0.78393 3.141611,1.58395 3.589818,1.58395 0.13697,0 0.607236,-0.2298 1.045036,-0.51067 1.789172,-1.14782 6.993277,-5.71034 6.993277,-6.13112 0,-0.10242 -0.339772,-0.2733 -0.75505,-0.37973 -0.93482,-0.23959 -2.261156,-1.02613 -3.402641,-2.01781 -0.477278,-0.41465 -0.935337,-0.7539 -1.01791,-0.7539 -0.08257,0 -0.217595,0.19352 -0.300051,0.43006 -0.726022,2.08267 -2.70008,0.59563 -3.411577,-2.5699 -0.172964,-0.76954 -0.20077,-0.80764 -0.335052,-0.45906 -0.658595,1.70961 -1.043427,2.15419 -1.60467,1.85382 -0.450514,-0.2411 -1.140391,-1.33629 -1.342052,-2.13051 -0.200026,-0.78778 -0.332895,-0.88093 -0.591037,-0.41432 -0.473685,0.8562 -0.89496,1.30066 -1.232819,1.30066 -0.496623,0 -1.309059,-0.79224 -1.309059,-1.27652 0,-0.51932 -0.205941,-0.61791 -0.533856,-0.25556 -0.147795,0.16331 -0.556805,0.40695 -0.908911,0.54142 -0.577407,0.22051 -0.706362,0.22169 -1.314896,0.012 -0.816878,-0.28144 -0.73938,-0.34674 -2.160151,1.82022 -1.140295,1.73919 -1.295577,2.0999 -1.432762,3.32826 -0.21994,1.96937 -1.284761,1.77659 -3.035081,-0.54949 -0.515691,-0.68532 -1.933876,-1.41872 -4.072583,-2.10609 -1.500613,-0.48229 -3.406848,-0.9022 -4.095629,-0.9022 H 64.73698 l 0.103932,1.56844 c 0.216998,3.27471 0.876394,7.25097 1.418318,8.55266 0.165925,0.39855 0.216645,0.94477 0.177968,1.9166 -0.08857,2.22549 -1.070386,3.85936 -2.514919,4.18515 -0.694915,0.15673 -0.772536,-0.0301 -0.300875,-0.72422 0.473129,-0.69627 0.502895,-1.44111 0.09408,-2.35423 -0.386266,-0.86275 -0.275574,-1.40778 0.468636,-2.30749 0.5745,-0.69455 0.592282,-0.75144 0.592282,-1.8951 0,-0.64848 -0.0676,-1.60015 -0.150224,-2.11482 -0.08262,-0.51466 -0.260704,-1.62434 -0.395735,-2.46595 -0.324065,-2.01981 -0.779294,-3.5574 -1.104798,-3.73159 -0.14409,-0.0771 -0.606276,-0.18445 -1.027078,-0.23853 -1.560727,-0.20062 -1.734374,-0.25422 -2.145917,-0.66242 -0.231273,-0.2294 -0.684491,-0.77284 -1.007152,-1.20765 -0.687292,-0.92617 -2.371987,-2.09718 -4.700049,-3.26694 -1.337886,-0.67223 -1.665392,-0.77908 -2.142269,-0.69895 -1.74495,0.29323 -2.312272,0.28214 -3.159577,-0.0618 -0.831851,-0.33763 -1.60551,-0.36409 -2.299974,-0.0787 -0.265475,0.10911 -0.255334,0.069 0.07651,-0.30293 0.210401,-0.2358 0.811402,-0.62555 1.335558,-0.86611 0.810369,-0.37193 1.147329,-0.4374 2.251293,-0.4374 1.758335,0 2.381275,0.25815 5.754771,2.38482 1.53981,0.9707 2.994359,1.80385 3.232331,1.85144 0.39185,0.0784 0.432677,0.0464 0.432677,-0.33869 0,-0.76731 -2.04079,-4.08287 -3.344857,-5.4342 -0.521133,-0.54002 -0.900199,-0.78362 -1.424172,-0.91523 -1.236768,-0.31064 -1.701239,-1.03252 -1.371806,-2.13207 0.281083,-0.93817 0.212256,-1.17194 -0.592009,-2.01078 -1.193036,-1.24431 -1.019415,-1.36127 0.724222,-0.48785 2.068099,1.03595 2.514388,1.59742 4.681075,5.88923 1.049509,2.07889 2.057675,3.98971 2.240369,4.24628 0.777293,1.09161 1.085177,0.35722 1.183687,-2.82342 l 0.07583,-2.4483 -1.02274,-1.21726 c -0.941724,-1.12083 -1.015534,-1.26022 -0.931769,-1.75972 0.28573,-1.70382 0.278852,-2.07992 -0.04783,-2.6158 -0.749864,-1.23006 -0.182092,-1.21856 0.96415,0.0195 0.918829,0.99245 1.332634,1.69135 1.79209,3.02678 0.248882,0.72339 0.287167,1.31154 0.287167,4.41158 0,3.99642 0.07937,4.4105 0.947162,4.94138 0.799663,0.4892 4.764816,2.12533 6.780307,2.79775 1.089692,0.36354 2.240605,0.64031 2.830855,0.68076 l 0.994624,0.0682 0.700815,-0.89204 c 0.385448,-0.49062 1.074035,-1.43439 1.530192,-2.09725 l 0.829377,-1.20522 -0.445447,-0.32497 c -0.244995,-0.17874 -0.61842,-0.4694 -0.829832,-0.6459 l -0.384385,-0.32092 0.703706,-1.59182 c 1.147051,-2.5947 2.029676,-6.0454 1.739631,-6.80124 -0.15487,-0.40359 -0.321322,-0.1448 -0.791726,1.23092 -0.662902,1.93868 -1.047146,2.30044 -1.689697,1.59081 -0.397897,-0.43944 -0.378832,-1.52779 0.07211,-4.11681 l 0.360013,-2.06694 -0.322889,-1.0842 C 74.740434,109.84159 69.410579,101.81049 65.122997,97.616567 63.681262,96.206323 62.513188,95.399609 60.950925,94.73518 59.961428,94.314347 59.579784,94.238373 58.181399,94.183848 l -1.621881,-0.06324 -2.325322,1.470769 c -2.463074,1.557898 -3.841595,2.317842 -3.841595,2.117776 0,-0.195012 3.177139,-3.56449 5.069563,-5.376465 2.509606,-2.402921 4.503907,-4.069342 5.514868,-4.608179 1.001587,-0.53384 1.102974,-0.645929 0.968242,-1.070434 -0.305838,-0.963607 -4.4825,-2.20783 -8.721818,-2.598218 -4.320709,-0.397883 -7.343835,-0.06907 -13.419649,1.4596 -1.152926,0.290076 -2.23745,0.52741 -2.410052,0.52741 -1.188057,0 1.06457,-2.785518 3.633995,-4.493669 1.971491,-1.310644 5.358398,-2.687877 8.293717,-3.37251 1.231846,-0.287315 3.703421,-0.702895 4.180322,-0.702895 0.756955,0 1.953994,-0.494609 3.121866,-1.289935 3.105636,-2.114952 5.412921,-2.894531 8.611807,-2.909731 1.724912,-0.0082 1.783639,0.003 2.968912,0.566266 0.665056,0.316045 2.325049,1.193993 3.688873,1.950995 1.363825,0.757002 2.558369,1.376367 2.654543,1.376367 0.349503,0 0.162181,-0.51139 -0.37179,-1.01499 -1.363712,-1.286145 -3.654196,-2.66381 -5.747235,-3.456807 -1.200231,-0.454735 -1.405354,-0.485088 -3.269813,-0.483853 -1.833815,0.0012 -2.096857,0.03886 -3.366422,0.481844 -0.757445,0.264289 -2.32283,0.932109 -3.478633,1.484044 -1.155803,0.551935 -2.261339,1.01675 -2.456746,1.032922 -0.76037,0.06293 -2.973738,-1.606468 -6.229646,-4.698614 -2.47601,-2.351475 -3.978498,-4.171067 -3.978498,-4.818169 0,-0.08932 0.162589,-0.236477 0.361309,-0.32702 0.279902,-0.127531 0.609632,-0.09435 1.463423,0.147266 0.606162,0.171539 1.080515,0.250861 1.054117,0.176273 -0.0264,-0.07459 -1.115024,-1.086189 -2.41917,-2.247999 C 35.969614,54.410173 27.847493,45.892205 25.91296,42.262651 25.078458,40.696964 24.770018,39.15351 25.14982,38.443843 c 0.389766,-0.728284 2.123067,-0.179631 4.446012,1.407325 0.722976,0.493913 1.355295,0.898023 1.405155,0.898023 0.04986,0 -0.462608,-0.912377 -1.138817,-2.027504 -2.094683,-3.454317 -4.073626,-7.653095 -4.850076,-10.29054 -0.505671,-1.717664 -0.825746,-4.003323 -0.728558,-5.202652 0.08862,-1.09364 0.467531,-2.452782 0.728817,-2.614266 0.472839,-0.29223 2.482718,2.35727 4.652958,6.133707 4.462191,7.764665 6.191062,10.626714 7.764451,12.853611 1.328503,1.880297 1.792439,2.451746 1.792439,2.207822 0,-0.103101 -0.374155,-1.124049 -0.831456,-2.268774 -1.259621,-3.153106 -1.989008,-5.13382 -2.520061,-6.843437 -1.234342,-3.973716 -1.575562,-6.925584 -0.924083,-7.994181 0.279538,-0.458515 0.366914,-0.50415 0.799592,-0.417614 1.777166,0.355433 5.165785,6.353164 9.647604,17.075904 0.986724,2.360734 1.882992,4.332135 1.704412,3.74897 -0.255888,-0.835625 -0.901163,-2.994931 -1.097456,-3.67246 -0.372398,-1.285376 -0.657785,-2.724568 -0.657785,-3.31718 0,-0.692453 0.355978,-1.109801 0.761495,-0.892775 0.610448,0.326702 1.954056,2.058792 3.953527,5.096624 8.41976,12.792293 9.66971,14.580892 13.014757,18.623277 2.538489,3.067685 4.340497,4.753387 8.283482,7.748847 4.225605,3.210165 5.730423,4.358622 7.49794,5.722329 1.052007,0.811663 3.223444,2.468001 4.825415,3.680751 1.601972,1.212749 3.140519,2.383935 3.418995,2.602635 l 0.506318,0.397636 -0.416082,0.821097 c -1.095696,2.162253 -1.601802,4.140778 -1.601802,6.26194 0,1.481334 0.04967,1.835514 0.620517,4.425028 0.343552,1.55843 0.490136,1.749186 0.833661,1.084882 0.185908,-0.359506 0.232498,-0.710214 0.170044,-1.279991 -0.04731,-0.431645 -0.130598,-1.716432 -0.185076,-2.855082 -0.08826,-1.84466 -0.06261,-2.203185 0.235322,-3.289912 0.183904,-0.670802 0.664652,-1.873796 1.068329,-2.673322 0.917145,-1.816507 1.596789,-3.92021 2.144537,-6.637989 1.734161,-8.604455 2.483578,-11.280482 3.310886,-11.822556 0.437909,-0.286929 0.722594,-0.1505 1.514091,0.725592 0.837702,0.927236 2.142107,3.938334 2.59518,5.990731 0.05109,0.231442 0.159128,0.420803 0.240082,0.420803 0.08095,0 0.187803,-0.189361 0.237444,-0.420803 0.146832,-0.684585 1.276309,-4.556341 1.93064,-6.618079 2.15327,-6.784756 3.86265,-10.996563 5.35658,-13.19828 0.72013,-1.061313 1.12121,-1.345616 1.94463,-1.378452 0.87076,-0.03472 1.54718,0.637178 2.01778,2.004325 0.2978,0.865124 0.3604,1.413269 0.41353,3.620785 0.0613,2.546453 -0.0157,3.354303 -0.68566,7.191901 -0.0545,0.311863 -0.0299,0.409993 0.0766,0.306038 0.0862,-0.08416 1.65106,-3.11394 3.47746,-6.732844 4.49213,-8.900892 6.16201,-12.122203 6.67579,-12.878057 1.12826,-1.659879 2.85814,-1.6876 4.04381,-0.0648 1.96579,2.69053 2.05681,7.856444 0.2199,12.480601 -1.02801,2.587854 -2.72495,5.45903 -4.64209,7.854291 -1.06997,1.336811 -1.5787,1.916175 -3.30425,3.76304 -1.3698,1.466109 0.0655,0.226969 2.95071,-2.547406 5.23497,-5.03389 8.05874,-7.551826 10.62551,-9.474663 2.6744,-2.003474 3.77446,-2.296745 4.16592,-1.110617 0.29828,0.903797 -0.42624,3.398333 -1.56916,5.402671 -0.25835,0.453053 -0.39376,0.797347 -0.30092,0.765096 0.0928,-0.03225 1.39424,-1.265437 2.892,-2.740415 4.97857,-4.902835 7.81289,-7.426218 9.81998,-8.742702 1.35176,-0.886644 1.74265,-0.931519 2.1187,-0.243232 0.23123,0.42321 0.26948,0.873521 0.25675,3.022129 -0.0129,2.170438 -0.0739,2.782546 -0.43494,4.361046 -1.08233,4.732322 -2.98476,8.131862 -5.7273,10.234383 -2.60476,1.9969 -8.35601,4.829053 -14.02133,6.904679 -0.8416,0.308343 -1.97923,0.726926 -2.52806,0.930186 -0.54883,0.20326 -1.10848,0.369564 -1.24367,0.369564 -0.13519,0 -0.33137,0.103105 -0.43596,0.229123 -0.20977,0.252761 -0.27505,0.255032 2.52448,-0.08782 0.75745,-0.09276 1.92804,-0.225959 2.60133,-0.295989 1.4625,-0.152118 6.42566,-0.816707 8.56907,-1.147438 0.84161,-0.12986 1.94335,-0.299595 2.44831,-0.377189 0.94258,-0.144839 2.87056,-0.479279 4.36105,-0.756496 1.26806,-0.235848 2.69219,-0.559554 4.055,-0.92171 3.0151,-0.801232 5.25481,-0.502344 6.87132,0.916973 1.12661,0.989172 1.63916,2.83955 1.05873,3.822137 -0.33565,0.568216 -1.72773,1.195675 -4.18108,1.884554 -2.56049,0.718965 -9.02418,2.156963 -11.47643,2.5532 -1.13518,0.183422 -1.9483,0.344553 -3.36643,0.667099 l -0.99462,0.226224 0.99462,-0.05848 c 0.54705,-0.03217 1.92422,-0.165122 3.06039,-0.29546 6.49917,-0.745567 10.9894,-0.783182 11.93423,-0.09997 0.85922,0.621305 0.69397,2.023381 -0.299,2.536867 -0.51645,0.267063 -0.55631,0.436071 -0.2353,0.99761 0.26001,0.454843 0.29367,1.492259 0.0679,2.094052 -0.65215,1.738696 -2.32637,2.783503 -5.57664,3.480127 -1.68936,0.362076 -4.46895,0.699608 -5.7613,0.699608 -1.31315,0 -1.67087,0.205763 -0.78469,0.451364 0.31803,0.08814 1.23239,0.336171 2.03192,0.551175 1.84812,0.496987 3.92077,1.268347 4.1499,1.544429 0.29041,0.349926 -0.21844,0.745342 -1.35511,1.053026 -0.93476,0.253027 -0.9901,0.289989 -0.64614,0.43158 1.85604,0.764051 2.78219,1.486078 2.99528,2.335131 0.23805,0.948448 -0.80915,2.566415 -2.18165,3.370755 -0.88155,0.51662 -2.99532,1.2162 -4.07167,1.34757 -0.48392,0.0591 -0.87986,0.16864 -0.87986,0.2435 0,0.0749 0.26741,0.20812 0.59425,0.29613 1.45399,0.39152 0.97221,0.99735 -1.20633,1.51694 -0.95702,0.22826 -3.74564,0.47521 -5.49701,0.48681 -1.75859,0.0116 -1.5148,0.17495 0.79998,0.53589 3.9218,0.61153 4.87106,1.35345 3.53892,2.76593 l -0.54604,0.57897 0.39302,0.28629 c 0.85672,0.62408 0.28927,2.02332 -1.10259,2.7188 -0.90712,0.45326 -3.19663,0.90839 -4.5696,0.90839 -0.85718,0 -0.92062,0.024 -0.90931,0.3443 0.0112,0.31901 -0.0616,0.34757 -0.99258,0.3889 -1.16663,0.0518 -3.28141,-0.57197 -5.49859,-1.62184 -0.71536,-0.33873 -1.32076,-0.59581 -1.34533,-0.57129 -0.0246,0.0245 0.33697,0.41468 0.80341,0.86702 1.08771,1.05484 1.21939,1.57511 0.56445,2.23006 -0.89208,0.89208 -2.55596,0.99597 -4.06046,0.25353 -0.41141,-0.20302 -0.77633,-0.34083 -0.81092,-0.30624 -0.0346,0.0346 0.11266,0.32158 0.32722,0.63776 0.21456,0.31617 0.39011,0.66611 0.39011,0.77765 0,0.86897 -3.48521,0.57135 -5.49799,-0.4695 -0.79089,-0.40898 -0.76323,-0.2955 0.32844,1.34731 0.82519,1.2418 1.33489,2.30688 1.38059,2.88493 0.0368,0.46558 0.002,0.50955 -0.44223,0.55265 -0.62334,0.0605 -1.43622,-0.63203 -2.07932,-1.77154 -0.48251,-0.85497 -0.82305,-0.86381 -0.55879,-0.0145 0.0751,0.24121 0.20169,0.64925 0.28142,0.90675 0.43251,1.39695 2.63998,4.51907 4.70661,6.65673 1.74516,1.80515 3.48397,3.32399 9.45572,8.2595 11.30126,9.34023 14.63636,12.4304 15.06371,13.95744 0.22715,0.81167 -0.42108,1.56802 -1.34387,1.56802 -0.4357,0 -0.45165,0.0238 -0.38457,0.57382 0.14789,1.21262 -0.92903,2.04047 -2.20312,1.69358 -1.72076,-0.46849 -4.98969,-2.60567 -8.68168,-5.67594 -0.58794,-0.48893 -1.08938,-0.82774 -1.11433,-0.7529 -0.0249,0.0748 0.19076,0.55379 0.47934,1.06434 0.67246,1.18971 1.32142,2.81131 1.32142,3.30195 0,0.69688 -0.14978,0.86628 -0.76593,0.86628 -1.00429,0 -3.03269,-1.22926 -5.43135,-3.29153 l -1.37717,-1.18404 -0.095,0.865 c -0.10718,0.97577 -0.44978,1.4683 -1.02133,1.4683 -0.67779,0 -1.7599,-0.66334 -2.99541,-1.83623 -1.91031,-1.81348 -3.19032,-3.61447 -7.02655,-9.88653 -2.34739,-3.83787 -4.40145,-6.60347 -4.39148,-5.9127 9.1e-4,0.0631 0.10419,0.45279 0.22952,0.86593 0.27427,0.90408 0.29623,2.40449 0.0454,3.09827 -0.36137,0.99936 -1.68611,1.19224 -3.29637,0.47994 l -0.66456,-0.29396 -0.42553,0.45554 c -0.42917,0.45942 -1.02563,0.67749 -2.35076,0.85946 -0.470432,0.0646 -1.05762,0.31954 -1.683212,0.7308 -1.531956,1.00711 -5.168778,4.77171 -5.168778,5.35038 0,0.0763 0.533655,0.37783 1.185899,0.67002 0.652244,0.29219 1.323616,0.59632 1.491937,0.67583 0.371391,0.17546 2.436512,0.93423 4.207724,1.54601 0.7152,0.24703 1.74808,0.52011 2.29529,0.60683 0.54721,0.0867 1.33922,0.31601 1.76002,0.50952 0.8806,0.40497 2.19705,1.62474 2.58486,2.39504 0.35139,0.69797 0.48269,1.84491 0.25904,2.26281 -0.23838,0.44542 -0.39958,0.41585 -0.61886,-0.11354 -0.3255,-0.78582 -0.84165,-1.13266 -1.8652,-1.25334 -1.18699,-0.13996 -1.64971,-0.48541 -2.04791,-1.52886 -0.2518,-0.65982 -0.45031,-0.90792 -0.9964,-1.24535 -0.8779,-0.54245 -4.727088,-1.99078 -6.653583,-2.50353 -1.787094,-0.47566 -1.884753,-0.44469 -2.733705,0.86697 -0.750256,1.15916 -1.151682,1.37809 -2.92412,1.59479 -0.910048,0.11126 -2.71017,0.98721 -4.505305,2.19231 -1.905414,1.27914 -2.203471,1.61113 -2.586167,2.88062 -0.288601,0.95735 -0.427226,1.17649 -1.101221,1.74079 -0.839776,0.7031 -1.217987,1.29308 -1.217987,1.89998 0,0.65768 -0.280883,0.43284 -0.392963,-0.31456 z M 62.874661,81.814207 c 0.78211,-0.259454 1.640425,-0.817545 2.078552,-1.351512 0.347949,-0.42406 0.147573,-0.740111 -0.832508,-1.313108 -0.683975,-0.39988 -0.920504,-0.45884 -1.655547,-0.412681 -0.900836,0.05657 -1.364564,0.326818 -2.11436,1.232181 -0.349084,0.421512 -0.353376,0.456726 -0.116283,0.953916 0.23922,0.501648 1.136438,1.12029 1.645521,1.134604 0.132289,0.0037 0.57987,-0.10581 0.994625,-0.2434 z M 114.3722,26.032457 c -1.15619,-0.793862 -2.28264,-3.538021 -2.12514,-5.17709 0.10668,-1.110321 0.80075,-2.126266 3.5366,-5.176757 1.33302,-1.48632 2.52967,-2.905438 2.65923,-3.153595 0.17469,-0.334613 0.21273,-0.710221 0.14723,-1.453682 -0.10926,-1.2400699 -1.41373,-6.4500861 -2.60722,-10.41316764 -0.29147,-0.96784632 -0.74504,-2.48273616 -1.00793,-3.36642196 -0.69403,-2.332901 -0.75263,-2.45181 -1.25813,-2.5529095 -0.24245,-0.04849 -0.56903,-0.2685821 -0.72573,-0.4890931 -0.5917,-0.8326434 -1.56045,-4.1379822 -2.55577,-8.7202288 l -0.27812,-1.280417 -1.07645,0.08216 c -1.88217,0.143664 -3.80625,0.434948 -4.59589,0.695767 -0.67714,0.223662 -0.78841,0.323072 -0.96789,0.864788 -0.11154,0.336643 -0.26454,0.95637 -0.34001,1.377173 -0.0755,0.420803 -0.24545,1.350394 -0.37774,2.065759 -0.3483,1.8834692 -0.60647,3.3534678 -1.20933,6.8858631 -1.21404,7.1135646 -1.944161,10.5539417 -2.512371,11.8384738 -0.157686,0.3564758 -0.51265,0.9054784 -0.788809,1.2200057 l -0.502106,0.5718678 0.288745,0.5424176 c 0.409723,0.769677 0.294763,0.730685 2.653851,0.900121 1.84023,0.13217 2.84579,0.508392 3.87641,1.450315 0.81735,0.747016 1.81579,2.298158 1.47927,2.298158 -0.0983,0 -0.43963,-0.206576 -0.75841,-0.459057 -0.70615,-0.559279 -0.98794,-0.571297 -1.72068,-0.07339 -0.31215,0.212118 -0.76734,0.425624 -1.01151,0.474459 -0.55163,0.110327 -1.66987,-0.362742 -2.53696,-1.07326 -0.468082,-0.383559 -0.838636,-0.540612 -1.46587,-0.621284 -0.461688,-0.05938 -1.011579,-0.132135 -1.22198,-0.161676 -0.210402,-0.02954 -0.933417,-0.09673 -1.606702,-0.149304 -0.673284,-0.05258 -1.718684,-0.169353 -2.323111,-0.259505 -1.302001,-0.194196 -0.936727,-0.415474 -4.101913,2.484877 -3.091551,2.832876 -3.306355,3.20001 -2.691709,4.600538 0.16167,0.368381 0.339788,0.918982 0.395816,1.223558 0.09284,0.504671 0.0392,0.624337 -0.604917,1.34958 -0.647469,0.729015 -0.698156,0.843071 -0.603929,1.358965 0.05657,0.309738 0.16208,0.722574 0.234462,0.917414 0.191568,0.515674 0.161134,0.946409 -0.06687,0.946409 -0.265803,0 -1.231974,-1.01683 -1.599353,-1.683211 -0.40252,-0.730121 -0.772502,-1.909122 -0.88957,-2.834736 -0.215543,-1.704232 0.310982,-2.585867 3.820466,-6.397146 0.761908,-0.827428 1.653071,-1.860307 1.980362,-2.295288 0.584489,-0.776804 0.593435,-0.80857 0.50283,-1.785499 -0.07711,-0.8313976 -0.156103,-1.0411769 -0.481365,-1.2782917 -0.591171,-0.4309624 -0.884935,-1.1095216 -0.762995,-1.762426 0.05703,-0.3053781 0.06481,-0.5208036 0.01728,-0.4787233 -0.04753,0.04208 -0.587325,0.5686837 -1.199546,1.1702298 C 86.000395,9.6193265 85.566302,9.7630126 83.249381,9.6253376 82.342406,9.5714438 81.115664,9.4253949 80.523287,9.3007846 79.93091,9.1761742 78.848227,9.0749173 78.117324,9.0757692 76.251149,9.0779442 75.088728,8.6550516 73.975128,7.5688248 L 73.137736,6.7520157 72.503435,7.0688011 c -0.972983,0.485931 -1.874701,0.7767741 -3.185039,1.027313 -1.072231,0.2050122 -1.278431,0.2040006 -1.98925,-0.00976 C 66.418391,7.8124697 66.221114,7.6751426 65.650038,6.9175082 64.535085,5.4383215 65.13052,4.3656818 72.738636,-5.8521793 c 1.604625,-2.1550453 3.487971,-4.7307627 4.185213,-5.7238157 5.344934,-7.612569 9.015607,-16.519448 9.374467,-22.747126 0.145768,-2.529656 -0.122552,-3.181769 -0.733049,-1.781572 -0.432558,0.992089 -1.505104,4.148516 -2.196811,6.465061 -0.314123,1.052006 -0.69056,2.291462 -0.836526,2.754345 -0.145966,0.462883 -0.461119,1.547406 -0.700339,2.410052 -0.26122,0.941977 -0.512892,1.568447 -0.630093,1.568447 -0.211631,0 -1.248976,-1.320006 -1.628304,-2.071993 -1.486391,-2.946646 -2.133179,-9.41383 -1.477396,-14.772387 1.088732,-8.896284 5.779668,-17.820052 12.458724,-23.70076 0.876845,-0.772036 1.795391,-1.725924 2.041213,-2.11975 0.245822,-0.393827 1.221953,-2.230938 2.16918,-4.08247 3.502761,-6.8468 5.965255,-10.613809 9.172575,-14.031804 4.63971,-4.944472 9.94658,-7.349372 15.69629,-7.11306 4.10897,0.168879 5.66196,0.870403 7.77604,3.512637 0.32128,0.401541 0.74734,0.837003 0.9468,0.967694 0.54385,0.356346 2.60483,0.858169 5.967,1.452892 0.50497,0.08932 1.22798,0.22286 1.6067,0.296751 0.37873,0.07389 0.99845,0.175961 1.37718,0.226819 0.37872,0.05086 1.03288,0.155199 1.45368,0.231867 0.4208,0.07667 1.45368,0.249964 2.29529,0.385101 3.19514,0.513048 4.73959,0.864105 5.66171,1.286922 1.29046,0.591716 3.66705,3.172728 4.28645,4.65515 0.20819,0.498264 0.20768,0.554581 -0.005,0.554581 -0.13017,0 -0.56146,-0.162374 -0.95842,-0.360831 -1.24755,-0.623691 -2.77766,-0.903407 -4.98395,-0.911101 -1.10638,-0.0039 -2.49361,0.08347 -3.08273,0.194054 -4.11997,0.773386 -10.45578,2.765801 -11.90206,3.742829 -0.39309,0.265549 -0.50596,0.485382 -0.67441,1.313548 -0.11128,0.547044 -0.27756,1.338918 -0.36951,1.759721 -0.092,0.420802 -0.20246,1.55697 -0.24557,2.524816 -0.0743,1.667391 -0.0534,1.835049 0.39757,3.195412 0.55902,1.686323 0.58747,1.919478 0.20815,1.706359 -1.25095,-0.702857 -3.2245,-0.84812 -4.10759,-0.302339 -1.40862,0.870573 -3.08111,4.72052 -3.81845,8.789746 -0.50011,2.760036 -0.12379,3.167338 0.62673,0.67833 1.92482,-6.383415 4.0237,-8.819446 6.59344,-7.652564 1.33031,0.604076 2.7907,2.4094 4.16728,5.151559 2.96052,5.897377 3.8214,14.614884 2.21244,22.403755 -0.65446,3.168198 -1.44307,4.254299 -2.19434,3.022129 l -0.30321,-0.497312 -0.003,0.841605 c -0.004,1.06236 -0.47694,2.960416 -0.99116,3.975176 -1.15757,2.28435 -3.24859,3.292214 -5.58732,2.693061 -0.54117,-0.138642 -1.18619,-0.352969 -1.43338,-0.476283 -0.68703,-0.342735 -0.86144,-0.287456 -0.86168,0.273107 -3.9e-4,0.917482 -0.43131,2.933614 -0.92395,4.322791 -0.71873,2.026719 -2.07226,4.601036 -3.65912,6.959355 -1.21173,1.800813 -1.36494,2.293665 -1.53069,4.9237507 -0.1605,2.546983 -0.37159,3.3781393 -0.99576,3.920849 l -0.35979,0.3128338 0.52618,1.8878527 c 1.03843,3.72575668 2.14215,7.2208782 3.30219,10.4569269 1.03827,2.8963749 1.34146,3.5079559 1.76914,3.5686639 0.19229,0.02729 1.1552,-0.337541 2.16145,-0.818945 2.05808,-0.9846204 2.28235,-0.9785766 2.5965,0.06997 0.35551,1.186587 0.61541,1.327055 2.81258,1.52013 1.41512,0.124352 2.14551,0.263431 2.66443,0.507349 0.82866,0.389517 2.11493,1.640328 2.62597,2.55357 0.33958,0.606845 0.34191,0.632765 0.057,0.632765 -0.1634,0 -0.38659,-0.107828 -0.49596,-0.239618 -0.10938,-0.13179 -0.39626,-0.341694 -0.63752,-0.466453 -0.41422,-0.214204 -0.48584,-0.199834 -1.28618,0.258072 -1.14996,0.657946 -1.73573,0.573661 -3.22927,-0.464658 l -1.12303,-0.780736 -2.32825,-0.232549 c -1.28054,-0.127902 -2.86039,-0.273064 -3.51079,-0.322582 l -1.18254,-0.09003 -1.02791,0.901495 c -1.84679,1.619677 -3.55508,3.238156 -4.18026,3.9605 -0.69881,0.807402 -0.7617,1.233214 -0.3317,2.245726 0.60567,1.426176 0.50096,2.256488 -0.3553,2.817535 -0.53035,0.347498 -0.59159,0.696046 -0.303,1.724565 0.13938,0.496769 0.22952,1.020124 0.20031,1.163011 -0.0473,0.231209 -0.11011,0.220661 -0.5711,-0.09586 z m 12.91807,-106.346628 c 0.16239,-0.739338 0.11386,-1.565366 -0.12551,-2.136677 -0.23947,-0.571529 -0.97916,-1.510594 -1.18988,-1.510594 -0.15165,0 -0.72383,1.822788 -0.78966,2.515642 -0.0373,0.392285 0.065,0.523461 0.79886,1.024602 0.46288,0.316096 0.9222,0.578445 1.02072,0.582997 0.0985,0.0046 0.22698,-0.209634 0.28547,-0.47597 z M -1.7869394,15.170182 c 0,-0.0978 0.1114853,-0.531497 0.2477452,-0.963763 0.2447577,-0.776461 0.2429124,-0.795476 -0.1530192,-1.576809 C -2.2664575,11.496394 -2.2222859,11.043895 -1.4563011,10.2129 -0.89998539,9.6093687 -0.822756,9.4393954 -0.84443497,8.8662504 -0.8769639,8.0062562 -1.3770388,6.1186324 -1.7049068,5.6182426 -2.1003486,5.0147222 -3.6873603,4.4713268 -6.3534894,4.0265602 l -1.1236185,-0.1874433 -0.5306125,0.513538 c -0.5911156,0.5720942 -1.8309517,2.4644461 -2.2599426,3.4493328 -0.193876,0.4451046 -0.246023,0.7952216 -0.170929,1.1476438 0.05943,0.2789252 0.141968,0.8858592 0.183412,1.3487425 0.06483,0.724029 0.02029,0.92272 -0.318778,1.422223 -0.216773,0.319339 -0.400996,0.76692 -0.409385,0.994624 -0.0084,0.227704 -0.06416,0.586154 -0.123938,0.796556 -0.106259,0.374009 -0.118188,0.3676 -0.534464,-0.287158 -0.591334,-0.930105 -1.162575,-2.512131 -1.162575,-3.219696 0,-0.6139785 0.170936,-0.8899202 2.480439,-4.0041578 1.0780741,-1.4537228 1.8040976,-2.5930542 1.8040976,-2.8311268 0,-0.2782063 -0.9166721,-0.5905731 -4.1929206,-1.428787 -3.039277,-0.77758572 -3.908399,-1.09419312 -3.928004,-1.43090875 -0.08922,-1.53240905 -0.453086,-2.62905385 -1.393495,-4.19981675 -0.821296,-1.371809 -0.984322,-1.5404978 -1.24086,-1.2839603 -0.09366,0.093659 -0.421759,0.1702901 -0.72911,0.1702901 -0.541953,0 -0.573479,-0.031802 -1.044449,-1.0535845 -0.653685,-1.4181881 -1.227252,-2.1765466 -2.19345,-2.9001346 -1.00507,-0.7526988 -2.870253,-1.7079906 -3.334808,-1.7079906 -0.403388,0 -0.40619,-0.08317 0.144333,4.284537 0.572477,4.5418838 0.62,4.9472689 0.859817,7.33447135 0.13047,1.29874135 0.250748,3.70879345 0.267283,5.35567135 0.02953,2.9408186 0.02319,3.0065971 -0.354531,3.6812082 -0.489794,0.8747701 -0.856955,0.9542961 -1.400408,0.3033261 l -0.416555,-0.4989653 -1.04149,0.6998793 c -0.572819,0.384934 -1.401959,0.823852 -1.842533,0.975373 -0.758786,0.26096 -0.814982,0.261555 -1.065266,0.01127 -0.302114,-0.302114 -0.354435,-1.8070249 -0.168814,-4.8556046 l 0.107146,-1.7597206 -0.374642,1.5301918 c -0.206054,0.8416055 -0.480867,1.977773 -0.610696,2.5248165 -0.482342,2.0323769 -1.028021,3.5291969 -1.452102,3.9831769 -0.39178,0.419403 -0.506198,0.454379 -1.486385,0.454379 -0.584062,0 -1.399954,-0.102677 -1.813092,-0.228171 -0.619899,-0.1883 -0.976301,-0.198555 -2.039549,-0.05868 -1.512094,0.198916 -3.718936,0.116902 -4.040736,-0.150169 -0.159194,-0.13212 -0.202893,-0.376179 -0.148855,-0.831369 0.09192,-0.774266 0.800212,-3.2251775 1.269636,-4.3933153 0.186013,-0.462883 0.431794,-1.1514694 0.546181,-1.5301918 l 0.207977,-0.6885863 -0.292843,0.3825479 c -0.161064,0.2104014 -0.716063,1.2088515 -1.233332,2.2187781 -1.104436,2.1563274 -2.805479,4.7589244 -3.383688,5.1770474 -0.614868,0.444633 -1.325695,0.244078 -2.304031,-0.650066 -0.488308,-0.446285 -1.113921,-0.842075 -1.574417,-0.996042 -2.653851,-0.887318 -4.819142,-2.5411831 -4.819142,-3.6808947 0,-1.1985184 1.194507,-2.7886346 4.175716,-5.5586721 0.750786,-0.6976051 1.098207,-1.2537453 0.783214,-1.2537453 -0.04989,0 -0.927834,0.670985 -1.950994,1.4910778 -2.303059,1.8459675 -4.520165,3.3420235 -5.298243,3.5751414 -0.324133,0.097113 -0.76241,0.1331288 -0.97395,0.080036 -0.629681,-0.15804 -1.286495,-0.8226672 -1.574183,-1.5929107 -0.148419,-0.3973692 -0.601921,-1.0906118 -1.007782,-1.5405392 -1.326033,-1.4700035 -1.954801,-2.92464052 -1.745781,-4.03881216 0.12377,-0.65975344 0.824572,-1.43393284 1.832971,-2.02489444 0.390169,-0.2286543 0.709399,-0.4357024 0.709399,-0.460107 0,-0.024405 -0.624763,-0.035076 -1.388362,-0.023715 -1.38473,0.020603 -1.389534,0.01935 -1.83623,-0.4790692 -0.525854,-0.5867422 -0.578591,-1.2233163 -0.205441,-2.4798488 0.342697,-1.1539832 0.884183,-1.9375653 1.586547,-2.2958849 0.332722,-0.1697423 2.037002,-0.7894731 3.787289,-1.3771799 5.082662,-1.706642 8.31902,-3.490176 11.427926,-6.297847 3.156524,-2.850677 4.323262,-4.882139 4.909812,-8.548708 0.295636,-1.848046 0.294544,-3.221208 -0.0043,-5.388665 -0.35216,-2.554254 -1.16731,-5.612489 -1.528078,-5.732956 -0.09173,-0.03063 -0.125831,1.311106 -0.09111,3.585341 0.05768,3.777733 -0.07594,5.541123 -0.607796,8.021134 -0.489901,2.284388 -1.162024,3.959381 -1.914347,4.770728 -0.442541,0.47726 -0.185083,0.468437 -3.348072,0.114743 -4.134834,-0.462369 -5.099451,-1.039695 -3.71888,-2.225763 0.741379,-0.636929 0.786191,-0.63176 -1.101224,-0.12702 -1.230384,0.329034 -3.849905,0.438093 -4.472555,0.186207 -0.482372,-0.195139 -0.722824,-0.40506 -0.727754,-0.635353 -0.0057,-0.267131 0.957009,-1.163339 1.524662,-1.419315 0.343181,-0.154753 0.599691,-0.354191 0.570023,-0.443195 -0.02967,-0.089 -0.496422,-0.176967 -1.03723,-0.195473 -1.62218,-0.05551 -2.59025,-0.19665 -3.077694,-0.448717 l -0.461346,-0.238571 0.314987,-0.335289 c 0.173243,-0.184409 0.630777,-0.42853 1.016742,-0.542492 0.385965,-0.113962 0.665719,-0.24324 0.621675,-0.287284 -0.04404,-0.04404 -0.61512,-0.132535 -1.269058,-0.196647 -5.176706,-0.507527 -9.546505,-1.621553 -9.891976,-2.521838 -0.357437,-0.931465 0.193462,-1.650098 1.414652,-1.845375 0.516099,-0.08253 0.603541,-0.141404 0.462468,-0.311387 -0.09568,-0.11529 -0.322411,-0.209618 -0.503842,-0.209618 -0.449553,0 -2.331555,-0.918167 -3.478517,-1.697054 -2.0316,-1.379633 -5.430275,-5.294675 -6.430579,-7.407588 -0.743534,-1.570544 -0.500867,-2.821095 0.508263,-2.619269 0.722467,0.144493 0.500082,-0.236757 -0.525074,-0.900172 -2.144909,-1.388046 -4.150213,-3.742629 -5.30834,-6.232933 -0.981855,-2.111271 -1.341647,-4.55647 -0.771528,-5.243422 0.574192,-0.691859 2.83324,0.4639 5.345946,2.73506 0.373335,0.337446 0.701748,0.544668 0.729807,0.460493 0.02806,-0.08418 -0.289291,-0.719263 -0.705221,-1.411306 -0.979491,-1.62972 -2.626019,-4.986728 -3.385075,-6.901629 -1.800352,-4.541812 -2.643576,-8.99557 -2.307939,-12.190117 0.172069,-1.637735 0.509318,-2.442706 1.225041,-2.924014 1.263622,-0.84976 2.488765,-0.121947 3.64487,2.165285 l 0.459076,0.908234 0.0065,-3.310008 c 0.0081,-4.146408 0.387017,-6.681269 1.576014,-10.544222 1.17199,-3.807697 3.564799,-8.529706 4.698831,-9.272752 0.329715,-0.216038 0.393019,-0.210348 0.771242,0.06932 0.948056,0.701018 1.61416,2.805452 2.121072,6.701141 0.292527,2.248105 0.455546,2.297951 0.491645,0.150328 0.01,-0.592381 0.119679,-2.279417 0.243826,-3.74897 0.740264,-8.762702 2.234018,-13.156142 4.47202,-13.153152 1.472339,0.002 2.622205,2.14769 3.115731,5.814154 0.24555,1.824226 0.334325,7.521639 0.134713,8.645583 -0.0952,0.536031 -0.108716,1.064785 -0.03248,1.270549 0.114147,0.308086 0.17507,0.221438 0.484148,-0.688586 1.051321,-3.095421 3.340995,-5.705121 4.889328,-5.572707 0.267198,0.02285 0.186459,0.972537 -0.248673,2.924985 -0.178186,0.799526 -0.433842,2.176698 -0.568125,3.060384 -0.134283,0.883686 -0.307372,2.019853 -0.384643,2.524816 -0.130158,0.85059 -0.403393,2.992545 -0.761266,5.967748 -0.215434,1.791034 -0.583319,6.60056 -0.766649,10.022757 -0.172165,3.21379 -0.01914,6.340819 0.392058,8.011619 0.527442,2.143126 4.312819,6.762844 7.94086,9.691119 2.549638,2.057871 5.796443,4.025433 9.109766,5.520515 1.455686,0.656854 1.789775,0.714422 1.988722,0.342686 0.132127,-0.246882 0.101878,-0.375279 -0.152819,-0.648665 -0.362467,-0.389063 -0.506834,-0.843756 -0.433158,-1.36426 0.09252,-0.653613 0.758004,-0.590599 3.799907,0.359807 1.939953,0.606114 2.595596,0.60939 3.331228,0.01664 1.206739,-0.97235 2.154025,-2.926375 2.285677,-4.714806 0.07775,-1.056135 0.06992,-1.084434 -0.558487,-2.020881 -0.733393,-1.092887 -2.486412,-2.786672 -5.729226,-5.53564 -3.92079,-3.323695 -5.053711,-4.324316 -5.499354,-4.857148 l -0.431943,-0.516452 0.375001,0 c 0.754179,0 3.995395,1.566385 10.249566,4.953316 2.109774,1.142543 4.804964,2.504407 5.273453,2.664645 0.410103,0.140269 0.497313,0.131323 0.497313,-0.05101 0,-0.483545 -4.945147,-5.22814 -8.008285,-7.683508 -1.547619,-1.240549 -2.509353,-1.674014 -5.99297,-2.701103 -3.358634,-0.99024 -3.74897,-1.145733 -3.74897,-1.493422 0,-0.299452 1.130321,-0.601905 2.271524,-0.607818 3.158986,-0.01636 8.059864,1.114112 10.735106,2.476249 1.291638,0.657656 2.120664,0.91436 4.437556,1.374068 4.168425,0.827083 6.435321,1.489389 8.707146,2.543917 2.242664,1.040992 3.840405,2.527555 5.632366,5.240438 0.813434,1.231473 2.616498,4.628591 3.135912,5.90831 1.7968157,4.426952 1.8827638,4.606738 2.5380382,5.30905 0.4939252,0.529381 0.9469953,0.824185 1.7214722,1.120129 1.1683598,0.446455 1.3994966,0.768884 0.9943937,1.387149 l -0.2489284,0.379913 0.580532,-0.242247 c 0.8461231,-0.353073 4.92504205,-2.492138 6.7012993,-3.514292 2.3499386,-1.352281 4.452383,-2.763192 5.3087667,-3.562616 1.5021724,-1.402259 3.2970073,-4.479175 5.7779353,-9.905217 1.762114,-3.853921 2.648047,-5.944304 5.544816,-13.08314 0.854817,-2.106624 1.463121,-2.950462 1.878443,-2.605775 0.133256,0.110593 0.263362,0.174051 0.289124,0.141018 0.02576,-0.03303 0.170009,-0.54207 0.320549,-1.131194 0.373757,-1.462662 1.207356,-3.177662 1.777894,-3.657738 0.515102,-0.43343 1.29474,-0.527584 1.70575,-0.205996 0.896198,0.701214 0.418611,4.216643 -1.321756,9.729196 -0.601963,1.906698 -0.654589,2.195455 -0.33835,1.856542 0.11499,-0.123235 1.685835,-2.42754 3.490766,-5.120678 6.317152,-9.425819 9.890343,-14.208165 12.426561,-16.631661 1.46357,-1.398522 2.082882,-1.336819 2.082882,0.207518 0,1.576275 -1.540541,5.159076 -4.134189,9.614789 -1.731355,2.974351 -1.864458,3.213403 -1.789199,3.213403 0.03879,0 1.072602,-1.129055 2.297364,-2.509011 4.59923,-5.182016 8.038313,-8.462306 9.659337,-9.213338 0.668865,-0.30989 0.810546,-0.329531 1.079041,-0.149585 0.279319,0.1872 0.30832,0.367218 0.301215,1.869766 -0.0061,1.279587 -0.0882,1.924184 -0.356582,2.797969 -1.083398,3.527274 -3.826313,7.620004 -7.879126,11.75652 -0.680274,0.694324 -1.189605,1.262408 -1.131845,1.262408 0.05776,0 0.882542,-0.523179 1.832851,-1.16262 2.238477,-1.506219 4.284263,-2.503629 5.363696,-2.615036 0.763113,-0.07876 0.851283,-0.05381 1.149477,0.325282 0.177632,0.225823 0.403658,0.799269 0.502279,1.274325 0.503559,2.425631 -0.723189,5.03741 -3.830282,8.154774 -0.885695,0.888622 -2.195653,2.020871 -2.911017,2.516108 -2.331537,1.614089 -7.911416,5.831678 -10.175776,7.691429 -0.168321,0.138244 -0.619582,0.495497 -1.002802,0.793894 -2.192187,1.706964 -2.589848,2.060731 -2.461117,2.189462 0.244597,0.244597 2.227922,-0.968471 5.300149,-3.241749 7.200078,-5.327657 9.663086,-6.878595 11.335307,-7.137755 0.527006,-0.08168 0.69345,-0.03677 1.071134,0.288997 0.426984,0.368287 0.446459,0.440125 0.431413,1.591333 -0.02422,1.853071 -0.586016,3.280995 -2.053116,5.218424 -1.491551,1.96972 -3.828031,4.176815 -6.344331,5.993009 l -1.374323,0.991946 1.221304,0.16257 c 2.091511,0.278404 2.691037,0.859513 1.82228,1.7663 l -0.393647,0.410879 0.618354,-0.165048 c 0.340094,-0.09078 0.659757,-0.123645 0.71036,-0.07304 0.123143,0.123144 -0.45141,1.244357 -1.116916,2.179608 -0.525201,0.738076 -1.580265,1.778864 -2.543315,2.5089 -1.292611,0.979858 -4.50944,2.200203 -6.750926,2.561049 -0.780521,0.125652 -0.426013,0.280446 0.994625,0.434297 2.575372,0.278906 4.088762,1.26255 3.41734,2.221138 -0.186944,0.266901 -0.383819,0.315938 -1.268446,0.315938 l -1.047156,0 0.528921,0.52892 c 0.474663,0.474663 0.524108,0.602585 0.48201,1.247011 -0.07242,1.108591 -0.452532,1.317056 -2.609981,1.43139 -0.06312,0.0033 -0.114765,0.130279 -0.114765,0.282075 0,0.48843 -0.777447,1.854231 -1.244973,2.187138 -0.714632,0.508863 -1.885908,0.747542 -4.034188,0.822073 -1.094088,0.03796 -2.020801,0.07176 -2.059364,0.07511 -0.03856,0.0034 0.212169,0.298752 0.557182,0.656434 0.829826,0.860297 1.169091,1.563434 1.183935,2.453737 0.01293,0.775601 -0.187975,1.046488 -0.680597,0.917664 -0.184918,-0.04836 -0.466246,0.137885 -0.850122,0.56279 -0.315559,0.349286 -0.889367,0.820616 -1.275129,1.0474 -0.675765,0.397274 -0.779637,0.411785 -2.843654,0.397277 -1.520379,-0.01069 -2.630895,-0.110945 -3.825479,-0.345367 -0.925766,-0.18167 -1.889787,-0.368782 -2.142269,-0.415804 l -0.459057,-0.08549 0.382548,0.324468 c 0.210401,0.178457 1.07994,0.834426 1.932308,1.457709 2.089879,1.528195 2.200727,1.898159 0.608288,2.030217 l -0.836596,0.06938 -0.104567,0.632245 c -0.390347,2.36016 -1.845007,4.120927 -3.396819,4.111618 -1.1506483,-0.0069 -2.7414193,-0.654685 -4.1082962,-1.672952 -0.2604257,-0.194006 -0.5571387,-0.352739 -0.6593623,-0.352739 -0.1022236,0 -0.1367287,-0.0795 -0.076678,-0.176662 0.069398,-0.112288 0.04178,-0.135004 -0.075793,-0.06234 -0.1841468,0.113809 -0.1220067,0.25432 0.5437043,1.22942 0.2459848,0.360306 0.2658113,0.907311 0.04766,1.31493 -0.3214414,0.600619 -2.4730992,0.213823 -4.4903468,-0.807214 l -0.59374156,-0.300524 0.0952331,0.357565 c 0.0523782,0.196661 0.13476342,0.499234 0.18307812,0.672385 0.052904,0.189598 -0.025187,0.454407 -0.19632749,0.665757 -0.26984646,0.333247 -0.31120044,0.339646 -0.8203037,0.126929 -0.52822759,-0.220708 -1.46823461,-1.173156 -2.26022391,-2.290137 -0.2225017,-0.313805 -0.4483421,-0.572025 -0.5018676,-0.573822 -0.053525,-0.0018 -0.4666772,0.62856 -0.918115,1.400794 -1.3308486,2.276561 -3.321238,4.104629 -4.4690965,4.104629 -0.5109854,0 -0.6121336,-0.196738 -0.5792219,-1.126611 l 0.027392,-0.773932 -0.5559573,0.649511 c -0.5376338,0.628104 -1.5084977,1.251032 -1.9497947,1.251032 -0.118117,0 -0.396392,-0.181633 -0.618388,-0.403629 -0.391175,-0.391175 -0.430379,-0.398258 -1.27054,-0.229529 -0.476801,0.09576 -1.100959,0.174101 -1.387017,0.174101 -0.965309,0 -1.471982,-0.561706 -0.820955,-0.910125 0.811602,-0.434356 2.302205,-2.955822 3.052984,-5.164348 0.600273,-1.76579 1.192872,-5.251506 0.962716,-5.662772 -0.16003,-0.285958 -0.180487,-0.254419 -0.715051,1.102412 -1.102718,2.798919 -3.273458,6.455738 -5.912489,9.960151 -0.322648,0.42845 -0.586633,0.922114 -0.586633,1.09703 0,0.440368 0.377552,1.898424 1.099141,4.244737 1.718225,5.5869645 1.734863,5.6791081 1.077555,5.9674257 -0.415744,0.1823598 -0.412066,0.2068767 0.441572,2.9430644 0.776422,2.48868672 1.108597,3.2201157 1.542546,3.39658484 0.194288,0.07900926 1.041838,0.25575039 1.883444,0.39275805 0.841605,0.13700767 1.874484,0.31182335 2.295287,0.38847929 0.420803,0.0766559 1.3848238,0.25078402 2.1422688,0.38695132 1.7327006,0.3114907 6.4294903,1.6226848 7.66848214,2.1407959 1.06199891,0.4440977 1.23500669,0.6993898 1.37241516,2.0251499 0.049829,0.4807611 0.2907385,1.4938387 0.5353555,2.2512837 1.0311889,3.1930279 1.1087321,3.9525399 0.5282317,5.1738729 -0.3846343,0.809244 -1.23003273,1.941519 -1.4496101,1.941519 -0.0667962,0 -0.0876303,-0.472643 -0.0462979,-1.050317 0.0961082,-1.343238 -0.126645,-1.502433 -0.6202247,-0.443255 -0.48835285,1.047961 -1.27321442,2.105649 -1.56250602,2.105649 -0.125713,0 -0.228569,-0.08002 -0.228569,-0.177825 z M 0.19155494,5.9947093 C 0.21492572,4.1243223 0.09704528,4.0007519 -2.245997,3.4394994 -3.7621688,3.0763154 -4.7392422,2.9737019 -4.847323,3.1663048 c -0.1020752,0.1819008 0.1325008,0.295732 1.7832816,0.8653613 2.12978423,0.7349175 2.27021345,0.850316 2.68180104,2.2037862 0.3903694,1.283696 0.55561349,1.2143657 0.5737953,-0.240743 z M -19.925695,-60.386808 c 0.155827,-0.252133 -0.255056,-2.361223 -0.573987,-2.946314 -0.377149,-0.691894 -0.984129,-0.968441 -2.097866,-0.955811 -0.87641,0.0099 -2.081481,0.495603 -2.237305,0.901674 -0.185441,0.483252 0.953863,2.020534 1.84192,2.485333 1.056932,0.553187 2.856886,0.855474 3.067238,0.515118 z"
       id="path1"
       clip-path="url(#clipPath3)" /></g></svg>
